<?xml version="1.0" encoding="UTF-8" standalone="no"?>
<svg
   xmlns:dc="http://purl.org/dc/elements/1.1/"
   xmlns:cc="http://creativecommons.org/ns#"
   xmlns:rdf="http://www.w3.org/1999/02/22-rdf-syntax-ns#"
   xmlns:svg="http://www.w3.org/2000/svg"
   xmlns="http://www.w3.org/2000/svg"
   xmlns:sodipodi="http://sodipodi.sourceforge.net/DTD/sodipodi-0.dtd"
   xmlns:inkscape="http://www.inkscape.org/namespaces/inkscape"
   id="SVGRoot"
   width="800"
   height="600"
   version="1.1"
   viewBox="0 0 800 600"
   xml:space="preserve"
   sodipodi:docname="back.svg"
   inkscape:version="1.0.1 (3bc2e813f5, 2020-09-07)"><defs
     id="defs10060"><clipPath
       clipPathUnits="userSpaceOnUse"
       id="clipPath12273"><rect
         style="fill:#2b1b01;stroke:none;stroke-width:47.2321"
         id="rect12275"
         width="4096.4692"
         height="3072.3521"
         x="-0.46928176"
         y="0" /></clipPath><clipPath
       clipPathUnits="userSpaceOnUse"
       id="clipPath12277"><rect
         style="fill:#2b1b01;stroke:none;stroke-width:9.22397"
         id="rect12279"
         width="800"
         height="600"
         x="0"
         y="0" /></clipPath></defs><sodipodi:namedview
     pagecolor="#ffffff"
     bordercolor="#666666"
     borderopacity="1"
     objecttolerance="10"
     gridtolerance="10"
     guidetolerance="10"
     inkscape:pageopacity="0"
     inkscape:pageshadow="2"
     inkscape:window-width="1920"
     inkscape:window-height="1011"
     id="namedview10058"
     showgrid="false"
     showguides="true"
     inkscape:guide-bbox="true"
     inkscape:zoom="0.50754246"
     inkscape:cx="308.28983"
     inkscape:cy="531.51479"
     inkscape:window-x="0"
     inkscape:window-y="32"
     inkscape:window-maximized="1"
     inkscape:current-layer="SVGRoot"><sodipodi:guide
       position="0,600"
       orientation="-1,0"
       id="guide12245"
       inkscape:label=""
       inkscape:locked="false"
       inkscape:color="rgb(0,0,255)" /><sodipodi:guide
       position="0,600"
       orientation="0,1"
       id="guide12247"
       inkscape:label=""
       inkscape:locked="false"
       inkscape:color="rgb(0,0,255)" /><sodipodi:guide
       position="800,838.45469"
       orientation="-1,0"
       id="guide12249"
       inkscape:label=""
       inkscape:locked="false"
       inkscape:color="rgb(0,0,255)" /></sodipodi:namedview><metadata
     id="metadata9757"><rdf:RDF><cc:Work
         rdf:about=""><dc:format>image/svg+xml</dc:format><dc:type
           rdf:resource="http://purl.org/dc/dcmitype/StillImage" /><dc:title></dc:title></cc:Work></rdf:RDF></metadata><path
     d="M 0.09164609,0 H 800 V 799.90832 H 0.09164609 Z"
     fill="#2b1d01"
     stroke-width="0.19529"
     style="mix-blend-mode:soft-light"
     id="path9759"
     clip-path="url(#clipPath12277)" /><g
     fill="none"
     stroke-linecap="round"
     stroke-linejoin="round"
     stroke-width="6.4"
     id="g10055"
     transform="matrix(0.19529012,0,0,0.19529012,0.09164609,0)"
     clip-path="url(#clipPath12273)"><g
       stroke="#21a4df"
       id="g9767"><path
         d="m 2335.6,2419.4 v 207.07 l 138.78,-138.78 v -607.68 l -138.78,-138.78 -138.78,138.78 v 400.62"
         opacity="0.5"
         style="mix-blend-mode:hard-light"
         id="path9761" /><path
         d="m 2474.2,2487.7 v -607.68 l -138.78,-138.78 -138.78,138.78 138.78,138.78 v 607.68"
         opacity="0.5"
         style="mix-blend-mode:hard-light"
         id="path9763" /><rect
         transform="rotate(45)"
         x="2882.6001"
         y="-420.19"
         width="196.27"
         height="196.27"
         opacity="0.5"
         style="mix-blend-mode:hard-light"
         id="rect9765" /></g><g
       stroke="#73ba25"
       id="g9775"><path
         d="m 2613.1,2626.6 v 20.709 l 138.78,-138.78 v -315.88 l -138.78,-138.78 -138.78,138.78 v 295.17"
         opacity="0.5"
         style="mix-blend-mode:hard-light"
         id="path9769" /><path
         d="m 2751.8,2508.4 -2e-4,-315.88 -138.78,-138.78 -138.79,138.78 138.78,138.78 v 315.88"
         opacity="0.5"
         style="mix-blend-mode:hard-light"
         id="path9771" /><rect
         transform="rotate(45)"
         x="3299.8999"
         y="-395.48999"
         width="196.27"
         height="196.27"
         opacity="0.5"
         style="mix-blend-mode:hard-light"
         id="rect9773" /></g><path
       d="m 3306.9,2530.6 v -607.68 l -138.78,-138.78 -138.78,138.78 138.78,138.78 v 607.68"
       opacity="0.5"
       stroke="#21a4df"
       style="mix-blend-mode:hard-light"
       id="path9777" /><rect
       transform="rotate(45)"
       x="3501.7"
       y="-978.72998"
       width="196.27"
       height="196.27"
       opacity="0.5"
       stroke="#21a4df"
       style="mix-blend-mode:hard-light"
       id="rect9779" /><rect
       transform="rotate(45)"
       x="3986.3999"
       y="-886.67999"
       width="196.27"
       height="196.27"
       opacity="0.5"
       stroke="#73ba25"
       style="mix-blend-mode:hard-light"
       id="rect9781" /><g
       stroke="#ffffff"
       id="g9789"><path
         d="m 1225.3,2481.1 v -241.94 l 138.78,-138.78 v -504.53 l -138.78,-138.78 -138.78,138.78 v 746.47"
         opacity="0.5"
         style="mix-blend-mode:hard-light"
         id="path9783" /><path
         d="m 1364,2100.3 v -504.53 l -138.78,-138.78 -138.78,138.78 138.78,138.78 v 504.53"
         opacity="0.5"
         style="mix-blend-mode:hard-light"
         id="path9785" /><rect
         transform="rotate(45)"
         x="1896.6"
         y="163.83"
         width="196.27"
         height="196.27"
         opacity="0.5"
         style="mix-blend-mode:hard-light"
         id="rect9787" /></g><path
       d="m 1086.5,2342.2 v -281.15 l -138.78,-138.78 -138.78,138.78 138.78,138.78 10e-4,281.15"
       opacity="0.5"
       stroke="#21a4df"
       style="mix-blend-mode:hard-light"
       id="path9791" /><path
       d="M 531.35,2656.9 V 1748.01 L 392.57,1609.23 253.79,1748.01 v 440.96 l 138.78,138.78 -10e-4,190.35"
       opacity="0.5"
       stroke="#73ba25"
       style="mix-blend-mode:hard-light"
       id="path9793" /><rect
       transform="rotate(45)"
       x="1415.5"
       y="860.29999"
       width="196.27"
       height="196.27"
       opacity="0.5"
       stroke="#73ba25"
       style="mix-blend-mode:hard-light"
       id="rect9795" /><g
       stroke="#ffffff"
       id="g9803"><path
         d="m 115,4096 -0.001,-1768.3 138.78,-138.78 8.5e-4,-203.22 -138.78,-138.78 -138.78,138.78 V 4096"
         opacity="0.5"
         style="mix-blend-mode:hard-light"
         id="path9797" /><path
         d="m 253.78,2189 0.002,-203.22 -138.78,-138.78 -138.78,138.78 138.78,138.78 v 203.22"
         opacity="0.5"
         style="mix-blend-mode:hard-light"
         id="path9799" /><rect
         transform="rotate(45)"
         x="1387.4"
         y="1224.7"
         width="196.27"
         height="196.27"
         opacity="0.5"
         style="mix-blend-mode:hard-light"
         id="rect9801" /></g><path
       d="m 531.35,4096 0.002,-1439.2 -138.78,-138.78 -138.78,138.78 138.78,138.78 v 1300.4"
       opacity="0.5"
       stroke="#21a4df"
       style="mix-blend-mode:hard-light"
       id="path9805" /><path
       d="M 2474.2,4096 V 2939 l -138.78,-138.78 -138.78,138.78 138.78,138.78 -9e-4,1018.2"
       opacity="0.5"
       stroke="#21a4df"
       style="mix-blend-mode:hard-light"
       id="path9807" /><path
       d="m 1641.6,2581.5 -4e-4,-69.391 -138.78,-138.78 -138.78,138.78 138.78,138.78 v 69.391"
       opacity="0.5"
       stroke="#73ba25"
       style="mix-blend-mode:hard-light"
       id="path9809" /><rect
       transform="rotate(45)"
       x="4440.3999"
       y="-628.48999"
       width="196.27"
       height="196.27"
       opacity="0.5"
       stroke="#ffffff"
       style="mix-blend-mode:hard-light"
       id="rect9811" /><path
       d="m 3306.9,4096 v -926.77 l -138.78,-138.78 -138.78,138.78 138.78,138.78 7e-4,787.99"
       opacity="0.5"
       stroke="#21a4df"
       style="mix-blend-mode:hard-light"
       id="path9813" /><path
       d="m 2751.8,2891.7 -6e-4,-71.153 -138.78,-138.78 -138.78,138.78 138.78,138.78 v 71.153"
       opacity="0.5"
       stroke="#ffffff"
       style="mix-blend-mode:hard-light"
       id="path9815" /><path
       d="m 947.69,2904.5 4.3e-4,-190.85 -138.78,-138.78 -138.78,138.78 138.78,138.78 0.002,190.85"
       opacity="0.5"
       stroke="#73ba25"
       style="mix-blend-mode:hard-light"
       id="path9817" /><g
       stroke="#fbc75d"
       id="g9847"><path
         d="M 670.12,2238.1 V 1211.2 L 531.34,1072.42 392.56,1211.2 v 398.06 l 138.78,138.78 v 628.84 z"
         opacity="0.5"
         style="mix-blend-mode:hard-light"
         id="path9819" /><path
         d="M 670.12,2238.1 V 1211.2 L 531.34,1072.42 392.56,1211.2 531.34,1349.98 v 1026.9"
         opacity="0.5"
         style="mix-blend-mode:hard-light"
         id="path9821" /><rect
         transform="rotate(45)"
         x="1134"
         y="382.56"
         width="196.27"
         height="196.27"
         opacity="0.5"
         style="mix-blend-mode:hard-light"
         id="rect9823" /><path
         d="M 2196.7,4096 V 2742.2 L 2057.92,2603.42 1919.14,2742.2 V 4096"
         opacity="0.5"
         style="mix-blend-mode:hard-light"
         id="path9825" /><path
         d="m 1502.8,2238.9 10e-4,134.33 138.78,138.78 v -677.08 l -138.78,-138.78 -138.78,138.78 v 265.17"
         opacity="0.5"
         style="mix-blend-mode:hard-light"
         id="path9827" /><path
         d="m 1641.6,2512.2 v -677.08 l -138.78,-138.78 -138.78,138.78 138.78,138.78 -3e-4,399.51"
         opacity="0.5"
         style="mix-blend-mode:hard-light"
         id="path9829" /><rect
         transform="rotate(45)"
         x="2262.1001"
         y="136.8"
         width="196.27"
         height="196.27"
         opacity="0.5"
         style="mix-blend-mode:hard-light"
         id="rect9831" /><path
         d="m 2057.9,2520.1 2e-4,-100.7 138.78,-138.78 v -284.84 l -138.78,-138.78 -138.78,138.78 v 385.54"
         opacity="0.5"
         style="mix-blend-mode:hard-light"
         id="path9833" /><path
         d="m 2196.7,2280.7 v -284.84 l -138.78,-138.78 -138.78,138.78 138.78,138.78 v 284.84"
         opacity="0.5"
         style="mix-blend-mode:hard-light"
         id="path9835" /><rect
         transform="rotate(45)"
         x="2768.3"
         y="-142.07001"
         width="196.27"
         height="196.27"
         opacity="0.5"
         style="mix-blend-mode:hard-light"
         id="rect9837" /><path
         d="m 2890.7,2647.3 -5e-4,239.27 138.78,-138.78 -9e-4,-324.91 -138.78,-138.78 -138.78,138.78 v 85.63"
         opacity="0.5"
         style="mix-blend-mode:hard-light"
         id="path9839" /><rect
         transform="rotate(45)"
         x="3659"
         y="-428.94"
         width="196.27"
         height="196.27"
         opacity="0.5"
         style="mix-blend-mode:hard-light"
         id="rect9841" /><path
         d="m 3722.9,2834.1 v 214.46 l 138.79,-138.78 v -708.31 l -137.72,-138.78 -139.85,138.78 v 493.85"
         opacity="0.5"
         style="mix-blend-mode:hard-light"
         id="path9843" /><path
         d="m 3861.8,2909.9 v -708.31 l -137.72,-138.78 -138.78,138.78 137.72,138.78 v 708.31"
         opacity="0.5"
         style="mix-blend-mode:hard-light"
         id="path9845" /></g><path
       d="m 3584.2,2695.5 0.3339,-364.8 -138.78,-138.78 -138.78,138.78 138.78,138.78 -0.3358,364.8"
       opacity="0.5"
       stroke="#73ba25"
       style="mix-blend-mode:hard-light"
       id="path9849" /><g
       stroke="#fbc75d"
       id="g9859"><rect
         transform="rotate(45)"
         x="4091.8"
         y="-1174.7"
         width="196.27"
         height="196.27"
         opacity="0.5"
         style="mix-blend-mode:hard-light"
         id="rect9851" /><path
         d="m 4000.6,3048.5 v 1047.4 m 138.78,0 V 2440.8 l -138.78,-138.78 -138.78,138.78 4e-4,468.91"
         opacity="0.5"
         style="mix-blend-mode:hard-light"
         id="path9853" /><path
         d="M 4139.3,4096 V 2440.9 l -138.78,-138.78 -138.78,138.78 138.78,138.78 v 1516.3"
         opacity="0.5"
         style="mix-blend-mode:hard-light"
         id="path9855" /><rect
         transform="rotate(45)"
         x="4456.6001"
         y="-1200.9"
         width="196.27"
         height="196.27"
         opacity="0.5"
         style="mix-blend-mode:hard-light"
         id="rect9857" /></g><rect
       transform="rotate(45)"
       x="2392.6001"
       y="1248.7"
       width="196.27"
       height="196.27"
       opacity="0.5"
       stroke="#73ba25"
       style="mix-blend-mode:hard-light"
       id="rect9861" /><g
       stroke="#fbc75d"
       id="g9883"><path
         d="m 808.9,2574.9 10e-4,-198.02 -138.78,-138.78 -138.78,138.78 138.78,138.78 0.002,198.02"
         opacity="0.5"
         style="mix-blend-mode:hard-light"
         id="path9863" /><rect
         transform="rotate(45)"
         x="2056.3999"
         y="1108.7"
         width="196.27"
         height="196.27"
         opacity="0.5"
         style="mix-blend-mode:hard-light"
         id="rect9865" /><path
         d="m 253.78,4096 -4.3e-4,-1439.2 138.78,-138.78 8.5e-4,-190.35 -138.78,-138.78 -138.78,138.78 v 1768.3"
         opacity="0.5"
         style="mix-blend-mode:hard-light"
         id="path9867" /><path
         d="m 392.56,2518.2 0.002,-190.35 -138.78,-138.78 -138.78,138.78 138.78,138.78 -8.6e-4,190.35 z"
         opacity="0.5"
         style="mix-blend-mode:hard-light"
         id="path9869" /><rect
         transform="rotate(45)"
         x="1727.2"
         y="1368.4"
         width="196.27"
         height="196.27"
         opacity="0.5"
         style="mix-blend-mode:hard-light"
         id="rect9871" /><path
         d="m 1225.2,2707.8 v -226.97 l -138.78,-138.78 -138.78,138.78 138.78,138.78 v 226.97"
         opacity="0.5"
         style="mix-blend-mode:hard-light"
         id="path9873" /><path
         d="m 1364,2846.7 9e-4,-334.57 138.78,-138.78 -2e-4,-134.33 -138.78,-138.78 -138.78,138.78 2e-4,468.91"
         opacity="0.5"
         style="mix-blend-mode:hard-light"
         id="path9875" /><path
         d="m 1502.8,2373.3 -2e-4,-134.33 -138.78,-138.78 -138.78,138.78 138.78,138.78 v 134.33"
         opacity="0.5"
         style="mix-blend-mode:hard-light"
         id="path9877" /><rect
         transform="rotate(45)"
         x="2449.6001"
         y="520.59003"
         width="196.27"
         height="196.27"
         opacity="0.5"
         style="mix-blend-mode:hard-light"
         id="rect9879" /><path
         d="m 808.9,2376.7 -4.3e-4,-315.8 138.78,-138.78 0.002,-361.28 -138.78,-138.78 -138.78,138.78 v 677.08"
         opacity="0.5"
         style="mix-blend-mode:hard-light"
         id="path9881" /></g><path
       d="m 947.69,2713.6 v -232.66 l 138.78,-138.78 -8e-4,-281.15 -138.78,-138.78 -138.78,138.78 -0.001,513.81"
       opacity="0.5"
       stroke="#21a4df"
       style="mix-blend-mode:hard-light"
       id="path9885" /><path
       d="m 1086.5,3043.2 -4e-4,-196.55 138.78,-138.78 V 2480.9 l -138.78,-138.78 -138.78,138.78 -10e-4,423.51"
       opacity="0.5"
       stroke="#fbc75d"
       style="mix-blend-mode:hard-light"
       id="path9887" /><path
       d="m 1364,4096 -2e-4,-1249.3 -138.78,-138.78 -138.78,138.78 -6e-4,1249.3"
       opacity="0.5"
       stroke="#21a4df"
       style="mix-blend-mode:hard-light"
       id="path9889" /><g
       stroke="#fbc75d"
       id="g9899"><path
         d="M 808.9,2061 947.68,1922.22 V 1560.94 L 808.9,1422.16 670.12,1560.94 808.9,1699.72 Z"
         opacity="0.5"
         style="mix-blend-mode:hard-light"
         id="path9891" /><rect
         transform="rotate(45)"
         x="1577.7"
         y="433.64999"
         width="196.27"
         height="196.27"
         opacity="0.5"
         style="mix-blend-mode:hard-light"
         id="rect9893" /><path
         d="m 2474.2,2939.1 v -118.46 l 138.78,-138.78 v -55.264 l -138.78,-138.78 -138.78,138.78 v 173.73"
         opacity="0.5"
         style="mix-blend-mode:hard-light"
         id="path9895" /><path
         d="m 2613.1,2681.8 v -55.264 l -138.79,-138.78 -138.77,138.78 138.77,138.78 v 55.262"
         opacity="0.5"
         style="mix-blend-mode:hard-light"
         id="path9897" /></g><rect
       transform="rotate(45)"
       x="3744.1001"
       y="48.588001"
       width="196.27"
       height="196.27"
       opacity="0.5"
       stroke="#ffffff"
       style="mix-blend-mode:hard-light"
       id="rect9901" /><g
       stroke="#fbc75d"
       id="g9939"><rect
         transform="rotate(45)"
         x="3508.8"
         y="9.5053997"
         width="196.27"
         height="196.27"
         opacity="0.5"
         style="mix-blend-mode:hard-light"
         id="rect9903" /><path
         d="m 2196.7,2742.2 v 196.75 l 138.78,-138.78 v -380.8 l -138.78,-138.78 -138.78,138.78 v 184.05"
         opacity="0.5"
         style="mix-blend-mode:hard-light"
         id="path9905" /><path
         d="m 2335.6,2800.2 v -380.8 l -138.78,-138.78 -138.78,138.78 138.78,138.78 v 380.8"
         opacity="0.5"
         style="mix-blend-mode:hard-light"
         id="path9907" /><rect
         transform="rotate(45)"
         x="3165.8999"
         y="59.361"
         width="196.27"
         height="196.27"
         opacity="0.5"
         style="mix-blend-mode:hard-light"
         id="rect9909" /><path
         d="M 2196.7,4096 V 2742.2 l -138.79,-138.78 -138.78,138.78 138.78,138.78 -9e-4,1215"
         opacity="0.5"
         style="mix-blend-mode:hard-light"
         id="path9911" /><rect
         transform="rotate(45)"
         x="3296.1001"
         y="385.76001"
         width="196.27"
         height="196.27"
         opacity="0.5"
         style="mix-blend-mode:hard-light"
         id="rect9913" /><path
         d="m 1919.1,2949.1 v -206.79 l 138.78,-138.78 v -83.356 l -138.78,-138.78 -138.78,138.78 v 290.15"
         opacity="0.5"
         style="mix-blend-mode:hard-light"
         id="path9915" /><path
         d="m 2057.9,2603.5 -6e-4,-83.356 -138.78,-138.78 -138.78,138.78 138.78,138.78 v 83.356"
         opacity="0.5"
         style="mix-blend-mode:hard-light"
         id="path9917" /><path
         d="M 1919.1,4096 V 2949 L 1780.32,2810.22 1641.54,2949 v 1147"
         opacity="0.5"
         style="mix-blend-mode:hard-light"
         id="path9919" /><path
         d="M 1919.1,4096 V 2949 l -138.78,-138.78 -138.78,138.78 138.78,138.78 v 1008.2"
         opacity="0.5"
         style="mix-blend-mode:hard-light"
         id="path9921" /><rect
         transform="rotate(45)"
         x="3246.2"
         y="728.27002"
         width="196.27"
         height="196.27"
         opacity="0.5"
         style="mix-blend-mode:hard-light"
         id="rect9923" /><path
         d="m 3029.3,4096 v -926.77 l 138.78,-138.78 v -144 l -138.78,-138.78 -138.78,138.78 v 1209.5"
         opacity="0.5"
         style="mix-blend-mode:hard-light"
         id="path9925" /><path
         d="m 3168.2,3030.4 v -144 l -138.78,-138.78 -138.78,138.78 138.78,138.78 v 144"
         opacity="0.5"
         style="mix-blend-mode:hard-light"
         id="path9927" /><path
         d="m 3584.6,4096 -0.3345,-988.95 -138.78,-138.78 -138.78,138.78 0.3345,988.95"
         opacity="0.5"
         style="mix-blend-mode:hard-light"
         id="path9929" /><rect
         transform="rotate(45)"
         x="4535.1001"
         y="-337.37"
         width="196.27"
         height="196.27"
         opacity="0.5"
         style="mix-blend-mode:hard-light"
         id="rect9931" /><path
         d="M 2890.7,4096 V 3030.4 l -138.78,-138.78 -138.78,138.78 138.78,138.78 v 926.77"
         opacity="0.5"
         style="mix-blend-mode:hard-light"
         id="path9933" /><path
         d="m 2751.8,2820.5 v 71.153 l 138.78,138.78 -2e-4,-383.27 -138.78,-138.78 -138.78,138.78 v 34.556"
         opacity="0.5"
         style="mix-blend-mode:hard-light"
         id="path9935" /><path
         d="m 2890.7,3030.4 -3e-4,-383.27 -138.78,-138.78 -138.78,138.78 138.78,138.78 v 105.71"
         opacity="0.5"
         style="mix-blend-mode:hard-light"
         id="path9937" /></g><path
       d="m 2613.1,4096 -9e-4,-1065.6 138.78,-138.78 v -71.153 l -138.78,-138.78 -138.78,138.78 v 1275.5"
       opacity="0.5"
       stroke="#ffffff"
       style="mix-blend-mode:hard-light"
       id="path9941" /><g
       stroke="#fbc75d"
       id="g9965"><rect
         transform="rotate(45)"
         x="3719.5"
         y="-172.11"
         width="196.27"
         height="196.27"
         opacity="0.5"
         style="mix-blend-mode:hard-light"
         id="rect9943" /><path
         d="m 3029.3,2422.8 v -499.97 l 138.78,-138.78 v -177.11 l -138.78,-138.78 -138.78,138.78 6e-4,677.08"
         opacity="0.5"
         style="mix-blend-mode:hard-light"
         id="path9945" /><path
         d="m 3168.2,1784.1 v -177.11 l -138.78,-138.78 -138.78,138.78 138.78,138.78 v 177.1"
         opacity="0.5"
         style="mix-blend-mode:hard-light"
         id="path9947" /><rect
         transform="rotate(45)"
         x="3180.2"
         y="-1104"
         width="196.27"
         height="196.27"
         opacity="0.5"
         style="mix-blend-mode:hard-light"
         id="rect9949" /><path
         d="m 2890.7,1880.1 v -273.09 l 138.78,-138.78 v -140.54 l -138.78,-138.78 -138.78,138.78 v 413.63"
         opacity="0.5"
         style="mix-blend-mode:hard-light"
         id="path9951" /><path
         d="m 3029.3,1468.2 v -140.54 l -138.78,-138.78 -138.78,138.78 138.78,138.78 9e-4,140.54"
         opacity="0.5"
         style="mix-blend-mode:hard-light"
         id="path9953" /><rect
         transform="rotate(45)"
         x="2884.6001"
         y="-1203.3"
         width="196.27"
         height="196.27"
         opacity="0.5"
         style="mix-blend-mode:hard-light"
         id="rect9955" /><path
         d="m 2751.8,2192.6 v 230.25 l 138.78,-138.78 v -403.99 l -138.79,-138.78 -138.78,138.78 8e-4,173.73"
         opacity="0.5"
         style="mix-blend-mode:hard-light"
         id="path9957" /><path
         d="m 2890.7,2283.9 v -403.99 l -138.79,-138.78 -138.78,138.78 138.78,138.78 v 403.99"
         opacity="0.5"
         style="mix-blend-mode:hard-light"
         id="path9959" /><rect
         transform="rotate(45)"
         x="3177"
         y="-714.59003"
         width="196.27"
         height="196.27"
         opacity="0.5"
         style="mix-blend-mode:hard-light"
         id="rect9961" /><path
         d="M 1086.5,4096 V 3043.2 L 947.72,2904.42 808.94,3043.2 947.72,3181.98 v 913.99"
         opacity="0.5"
         style="mix-blend-mode:hard-light"
         id="path9963" /></g><path
       d="m 3168.2,2886.4 v -217.19 l 138.78,-138.78 9e-4,-607.68 -138.78,-138.78 -138.78,138.78 -2e-4,824.87"
       opacity="0.5"
       stroke="#21a4df"
       style="mix-blend-mode:hard-light"
       id="path9967" /><path
       d="m 3306.9,3169.3 -0.333,-62.189 138.78,-138.78 0.3309,-299.01 -138.78,-138.78 -138.78,138.78 6e-4,361.19"
       opacity="0.5"
       stroke="#fbc75d"
       style="mix-blend-mode:hard-light"
       id="path9969" /><path
       d="m 3445.8,2669.2 -0.3311,164.86 138.78,-138.78 0.3369,-364.8 -138.78,-138.78 -138.78,138.78 v 199.94"
       opacity="0.5"
       stroke="#73ba25"
       style="mix-blend-mode:hard-light"
       id="path9971" /><path
       d="m 3445.3,2968.3 0.332,-299.01 -138.78,-138.78 -138.78,138.78 138.78,138.78 -0.3298,299.01"
       opacity="0.5"
       stroke="#fbc75d"
       style="mix-blend-mode:hard-light"
       id="path9973" /><path
       d="m 3584.2,3107 0.3352,988.95 m 138.78,0 -0.3375,-1261.9 -138.78,-138.78 -138.78,138.78 2e-4,134.14"
       opacity="0.5"
       stroke="#ffffff"
       style="mix-blend-mode:hard-light"
       id="path9975" /><path
       d="m 3029.3,2747.7 2e-4,-324.91 -138.79,-138.78 -138.78,138.78 138.78,138.78 7e-4,324.91"
       opacity="0.5"
       stroke="#fbc75d"
       style="mix-blend-mode:hard-light"
       id="path9977" /><rect
       transform="rotate(45)"
       x="4127.7002"
       y="-549.02002"
       width="196.27"
       height="196.27"
       opacity="0.5"
       stroke="#fbc75d"
       style="mix-blend-mode:hard-light"
       id="rect9979" /><rect
       transform="rotate(45)"
       x="4383.2002"
       y="-97.375"
       width="196.27"
       height="196.27"
       opacity="0.5"
       stroke="#21a4df"
       style="mix-blend-mode:hard-light"
       id="rect9981" /><rect
       transform="rotate(45)"
       x="4085"
       y="-199.2"
       width="196.27"
       height="196.27"
       opacity="0.5"
       stroke="#fbc75d"
       style="mix-blend-mode:hard-light"
       id="rect9983" /><rect
       transform="rotate(45)"
       x="4788.2998"
       y="-673.12"
       width="196.27"
       height="196.27"
       opacity="0.5"
       stroke="#73ba25"
       style="mix-blend-mode:hard-light"
       id="rect9985" /><path
       d="m 3723.3,4096 -0.3375,-1261.9 -138.78,-138.78 -138.78,138.78 138.78,138.78 0.3367,1123.1"
       opacity="0.5"
       stroke="#ffffff"
       style="mix-blend-mode:hard-light"
       id="path9987" /><path
       d="m 3584.6,4096 -0.3345,-988.95 -138.78,-138.78 -138.78,138.78 138.78,138.78 0.3337,850.17"
       opacity="0.5"
       stroke="#fbc75d"
       style="mix-blend-mode:hard-light"
       id="path9989" /><rect
       transform="rotate(45)"
       x="2740.8"
       y="615.56"
       width="196.27"
       height="196.27"
       opacity="0.5"
       stroke="#73ba25"
       style="mix-blend-mode:hard-light"
       id="rect9991" /><path
       d="m 1780.4,2810.2 v -89.967 l -138.78,-138.78 -138.78,138.78 138.78,138.78 -4e-4,89.967"
       opacity="0.5"
       stroke="#fbc75d"
       style="mix-blend-mode:hard-light"
       id="path9993" /><path
       d="m 531.35,2656.9 v -908.89 l -138.78,-138.78 -138.78,138.78 138.78,138.78 v 631.32"
       opacity="0.5"
       stroke="#73ba25"
       style="mix-blend-mode:hard-light"
       id="path9995" /><path
       d="m 670.12,4096 -10e-4,-1382.4 138.78,-138.78 -4.2e-4,-198.02 -138.78,-138.78 -138.78,138.78 V 4096"
       opacity="0.5"
       stroke="#fbc75d"
       style="mix-blend-mode:hard-light"
       id="path9997" /><path
       d="m 808.9,4096 -4.3e-4,-1052.8 138.78,-138.78 -10e-4,-190.85 -138.78,-138.78 -138.78,138.78 v 1382.4"
       opacity="0.5"
       stroke="#73ba25"
       style="mix-blend-mode:hard-light"
       id="path9999" /><rect
       transform="rotate(45)"
       x="2424.3999"
       y="887.92999"
       width="196.27"
       height="196.27"
       opacity="0.5"
       stroke="#fbc75d"
       style="mix-blend-mode:hard-light"
       id="rect10001" /><g
       stroke="#21a4df"
       id="g10011"><rect
         transform="rotate(45)"
         x="3631.3999"
         y="328.60999"
         width="196.27"
         height="196.27"
         opacity="0.5"
         style="mix-blend-mode:hard-light"
         id="rect10003" /><path
         d="m 1919.1,2381.4 -8e-4,-109.36 -138.78,-138.78 -138.78,138.78 138.78,138.78 8e-4,109.36"
         opacity="0.5"
         style="mix-blend-mode:hard-light"
         id="path10005" /><rect
         transform="rotate(45)"
         x="2767.2"
         y="249.48"
         width="196.27"
         height="196.27"
         opacity="0.5"
         style="mix-blend-mode:hard-light"
         id="rect10007" /><path
         d="m 1780.4,2720.2 10e-4,-200.18 138.78,-138.78 v -109.36 l -138.78,-138.78 -138.78,138.78 v 309.55"
         opacity="0.5"
         style="mix-blend-mode:hard-light"
         id="path10009" /></g><path
       d="m 1502.8,2916.1 v -195.79 l 138.78,-138.78 v -69.391 l -138.78,-138.78 -138.78,138.78 v 542.74"
       opacity="0.5"
       stroke="#73ba25"
       style="mix-blend-mode:hard-light"
       id="path10013" /><path
       d="m 1364,4096 7e-4,-1249.3 -138.78,-138.78 -138.78,138.78 138.78,138.78 v 1110.6"
       opacity="0.5"
       stroke="#21a4df"
       style="mix-blend-mode:hard-light"
       id="path10015" /><g
       stroke="#fbc75d"
       id="g10033"><path
         d="m 1641.6,3054.9 v -105.82 l 138.78,-138.78 v -89.967 l -138.78,-138.78 -138.78,138.78 v 195.79"
         opacity="0.5"
         style="mix-blend-mode:hard-light"
         id="path10017" /><rect
         transform="rotate(45)"
         x="3040.8999"
         y="326.82001"
         width="196.27"
         height="196.27"
         opacity="0.5"
         style="mix-blend-mode:hard-light"
         id="rect10019" /><rect
         transform="rotate(45)"
         x="2986.1001"
         y="664.63"
         width="196.27"
         height="196.27"
         opacity="0.5"
         style="mix-blend-mode:hard-light"
         id="rect10021" /><path
         d="M 1641.6,4096 V 3054.8 l -138.78,-138.78 -138.78,138.78 138.78,138.78 v 902.37"
         opacity="0.5"
         style="mix-blend-mode:hard-light"
         id="path10023" /><rect
         transform="rotate(45)"
         x="3124.6001"
         y="999.34998"
         width="196.27"
         height="196.27"
         opacity="0.5"
         style="mix-blend-mode:hard-light"
         id="rect10025" /><path
         d="M 1641.6,4096 V 3054.8 L 1502.82,2916.02 1364.04,3054.8 V 4096"
         opacity="0.5"
         style="mix-blend-mode:hard-light"
         id="path10027" /><path
         d="M 2890.7,4096 V 3030.4 L 2751.92,2891.62 2613.14,3030.4 V 4096"
         opacity="0.5"
         style="mix-blend-mode:hard-light"
         id="path10029" /><rect
         transform="rotate(45)"
         x="3990.7"
         y="98.891998"
         width="196.27"
         height="196.27"
         opacity="0.5"
         style="mix-blend-mode:hard-light"
         id="rect10031" /></g><path
       d="m 3306.9,4096 v -926.77 l -138.78,-138.78 -138.78,138.78 V 4096"
       opacity="0.5"
       stroke="#21a4df"
       style="mix-blend-mode:hard-light"
       id="path10035" /><path
       d="M 4000.6,4096 V 3048.6 l -138.78,-138.78 -138.79,138.78 138.79,138.78 v 908.63"
       opacity="0.5"
       stroke="#73ba25"
       style="mix-blend-mode:hard-light"
       id="path10037" /><path
       d="M 4000.6,4096 V 3048.6 L 3861.82,2909.82 3723.03,3048.6 V 4096"
       opacity="0.5"
       stroke="#73ba25"
       style="mix-blend-mode:hard-light"
       id="path10039" /><path
       d="m 531.35,4096 -10e-4,-1439.2 -138.78,-138.78 -138.78,138.78 4.2e-4,1439.2"
       opacity="0.5"
       stroke="#21a4df"
       style="mix-blend-mode:hard-light"
       id="path10041" /><rect
       transform="rotate(45)"
       x="2058.1001"
       y="1503"
       width="196.27"
       height="196.27"
       opacity="0.5"
       stroke="#21a4df"
       style="mix-blend-mode:hard-light"
       id="rect10043" /><path
       d="m 1086.5,4096 2e-4,-1052.8 -138.78,-138.78 -138.78,138.78 -10e-4,1052.8"
       opacity="0.5"
       stroke="#fbc75d"
       style="mix-blend-mode:hard-light"
       id="path10045" /><rect
       transform="rotate(45)"
       x="2781.1001"
       y="1048.4"
       width="196.27"
       height="196.27"
       opacity="0.5"
       stroke="#21a4df"
       style="mix-blend-mode:hard-light"
       id="rect10047" /><rect
       transform="rotate(45)"
       x="2723.8999"
       y="1383.8"
       width="196.27"
       height="196.27"
       opacity="0.5"
       stroke="#fbc75d"
       style="mix-blend-mode:hard-light"
       id="rect10049" /><rect
       transform="rotate(45)"
       x="2029.3"
       y="689.12"
       width="196.27"
       height="196.27"
       opacity="0.5"
       stroke="#21a4df"
       style="mix-blend-mode:hard-light"
       id="rect10051" /><path
       d="M 2474.2,4096 V 2939 L 2335.42,2800.22 2196.64,2939 v 1157"
       opacity="0.5"
       stroke="#21a4df"
       style="mix-blend-mode:hard-light"
       id="path10053" /></g></svg>
