<?xml version="1.0" encoding="UTF-8"?>
<svg id="SVGRoot" width="800" height="600" version="1.1" viewBox="0 0 800 600" xml:space="preserve" xmlns="http://www.w3.org/2000/svg" xmlns:cc="http://creativecommons.org/ns#" xmlns:dc="http://purl.org/dc/elements/1.1/" xmlns:rdf="http://www.w3.org/1999/02/22-rdf-syntax-ns#"><metadata><rdf:RDF><cc:Work rdf:about=""><dc:format>image/svg+xml</dc:format><dc:type rdf:resource="http://purl.org/dc/dcmitype/StillImage"/><dc:title/></cc:Work></rdf:RDF></metadata><g display="none"><path d="m4.8828e-5 0h1600v1200h-1600z" fill="#63bbb2" stroke-width=".96225" style="mix-blend-mode:soft-light"/></g><g display="none"><g transform="translate(-200,120)" fill="#0b2925"><path d="m632.3 774.9 4e-4 -262.92h-130.11v150.25l65.052 112.68 6e-4 112.68" opacity=".08" style="mix-blend-mode:overlay"/><path d="m502.2 511.9 65.053 112.68v262.92l65.053-112.68v-262.92z" opacity=".08" style="mix-blend-mode:overlay"/><path d="m1738.2 794.2 1e-4 64.276h130.11l-1e-4 -64.276-65.053-112.68z" opacity=".08" style="mix-blend-mode:overlay"/><path d="m1803.2 681.5 65.053 112.68h-130.11z" opacity=".08" style="mix-blend-mode:overlay"/><path d="m567.2 624.6 65.053-112.68h-130.11z" opacity=".08" style="mix-blend-mode:overlay"/><path d="m46.8 911v-220.02l65.055-112.68-6e-4 -177.52h-130.11v397.54" opacity=".08" style="mix-blend-mode:overlay"/><path d="m-18.3 400.8 65.053 112.68v177.52l65.053-112.68v-177.52z" opacity=".08" style="mix-blend-mode:overlay"/><path d="m46.8 513.5 65.053-112.68h-130.11z" opacity=".08" style="mix-blend-mode:overlay"/><path d="m241.9 691 7e-4 -213.64h-130.11v100.96l65.054 112.68-8e-4 112.68" opacity=".08" style="mix-blend-mode:overlay"/><path d="m111.8 477.4 65.053 112.68v213.64l65.054-112.68 6e-4 -213.64z" opacity=".08" style="mix-blend-mode:overlay"/><path d="m176.9 590.1 65.053-112.68h-130.11z" opacity=".08" style="mix-blend-mode:overlay"/></g><g transform="translate(-200,120)" fill="#73ba25"><path d="m307 803.7 8e-4 -134.46 65.054-112.68-6e-4 -239.3h-130.11l-8e-4 373.76" opacity=".08" style="mix-blend-mode:darken"/><path d="m241.9 317.3 65.053 112.68 6e-4 239.3 65.053-112.68-6e-4 -239.3z" opacity=".08" style="mix-blend-mode:darken"/><path d="m307 429.9 65.053-112.68h-130.11z" opacity=".08" style="mix-blend-mode:darken"/></g><g transform="translate(-200,120)" fill="#0b2925"><path d="m502.2 662.2v-206.58h-130.11v100.96l65.053 112.68v105.62" opacity=".08" style="mix-blend-mode:overlay"/><path d="m372 455.6 65.053 112.68v206.58l65.054-112.68 9e-4 -206.58z" opacity=".08" style="mix-blend-mode:overlay"/><path d="m437.1 568.3 65.053-112.68h-130.11z" opacity=".08" style="mix-blend-mode:overlay"/><path d="m1217.7 791.9v-112.68l65.055-112.68v-44.621h-130.11l5e-4 157.3" opacity=".08" style="mix-blend-mode:overlay"/><path d="m1152.7 521.9 65.053 112.68 6e-4 44.622 65.054-112.68v-44.621z" opacity=".08" style="mix-blend-mode:overlay"/><path d="m1217.7 634.6 65.053-112.68h-130.11z" opacity=".08" style="mix-blend-mode:overlay"/></g><g transform="translate(-200,120)" fill="#73ba25"><path d="m697.3 887.5v-218.3l65.052-114.4v-155.57h-130.11v375.6" opacity=".08" style="mix-blend-mode:darken"/><path d="m632.3 399.3 65.053 112.68v155.57l65.053-112.68v-155.57z" opacity=".08" style="mix-blend-mode:darken"/><path d="m697.3 511.9 65.053-112.68h-130.11z" opacity=".08" style="mix-blend-mode:darken"/></g><g transform="translate(-200,120)" fill="#21a4df"><path d="m892.5 667.5-2e-4 -191.69h-130.11l-4e-4 79.014 65.053 112.68 6e-4 112.68" opacity=".08" style="mix-blend-mode:hard-light"/><path d="m762.4 475.8 65.053 112.68-3e-4 191.69 65.053-112.68 3e-4 -191.69z" opacity=".08" style="mix-blend-mode:hard-light"/><path d="m827.4 588.5 65.053-112.68h-130.11z" opacity=".08" style="mix-blend-mode:hard-light"/></g><g transform="translate(-200,120)" fill="#0b2925"><path d="m1022.6 780.2-9e-4 -388.1h-130.11l3e-4 275.42 65.053 112.68 6e-4 112.68" opacity=".08" style="mix-blend-mode:overlay"/><path d="m892.5 392.1 65.053 112.68-3e-4 388.1 65.054-112.68-3e-4 -388.1z" opacity=".08" style="mix-blend-mode:overlay"/><path d="m957.5 504.8 65.053-112.68h-130.11z" opacity=".08" style="mix-blend-mode:overlay"/><path d="m1087.6 892.9-1e-4 -100.96 65.054-112.68-5e-4 -213.63h-130.11v314.59" opacity=".08" style="mix-blend-mode:overlay"/><path d="m1022.6 465.6 65.053 112.68-1e-4 213.63 65.054-112.68-6e-4 -213.63z" opacity=".08" style="mix-blend-mode:overlay"/><path d="m1087.6 578.3 65.053-112.68h-130.11z" opacity=".08" style="mix-blend-mode:overlay"/></g><g transform="translate(0,120)" fill="#fff"><path d="m502.2 235.6-7e-4 112.68 65.054-112.68-5e-4 -213.63h-130.11l5e-4 100.96" opacity=".08" style="mix-blend-mode:hard-light"/><path d="m437.1 21.9 65.053 112.68-1e-4 213.63 65.054-112.68-6e-4 -213.63z" opacity=".08" style="mix-blend-mode:hard-light"/><path d="m502.2 134.6 65.053-112.68h-130.11z" opacity=".08" style="mix-blend-mode:hard-light"/></g><g transform="translate(-200,120)" fill="#0b2925"><path d="m1868.3 794.2 3e-4 112.68 65.054-112.68-9e-4 -213.63h-130.11v100.96" opacity=".08" style="mix-blend-mode:overlay"/><path d="m1803.2 580.5 65.053 112.68-3e-4 213.64 65.054-112.68-3e-4 -213.64z" opacity=".08" style="mix-blend-mode:overlay"/><path d="m1868.3 693.2 65.053-112.68h-130.11z" opacity=".08" style="mix-blend-mode:overlay"/><path d="m1347.9 679.2 2e-4 85.059 65.054-112.68-9e-4 -242.36h-130.11v157.3" opacity=".08" style="mix-blend-mode:overlay"/><path d="m1282.8 409.2 65.053 112.68-3e-4 242.36 65.054-112.68-3e-4 -242.36z" opacity=".08" style="mix-blend-mode:overlay"/><path d="m1347.9 521.9 65.053-112.68h-130.11z" opacity=".08" style="mix-blend-mode:overlay"/><path d="m1478 764.3-2e-4 56.338 65.053-112.68 1e-4 -157.3h-130.11v100.96" opacity=".08" style="mix-blend-mode:overlay"/><path d="m1412.9 550.6 65.053 112.68-6e-4 157.3 65.055-112.68-6e-4 -157.3z" opacity=".08" style="mix-blend-mode:overlay"/><path d="m1478 663.3 65.053-112.68h-130.11z" opacity=".08" style="mix-blend-mode:overlay"/></g><g transform="translate(-200,120)" fill="#21a4df"><path d="m1608.1 820.6 5e-4 -98.808 65.055-112.68v-157.3h-130.11l-6e-4 256.1" opacity=".08" style="mix-blend-mode:hard-light"/><path d="m1543 451.8 65.053 112.68v157.3l65.054-112.68-6e-4 -157.3z" opacity=".08" style="mix-blend-mode:hard-light"/><path d="m1608.1 564.5 65.053-112.68h-130.11z" opacity=".08" style="mix-blend-mode:hard-light"/></g><g transform="translate(-200,120)" fill="#73ba25"><path d="m1738.2 721.8v72.342l65.053-112.68-6e-4 -157.29h-130.11v84.952" opacity=".08" style="mix-blend-mode:darken"/><path d="m1673.1 524.2 65.053 112.68 6e-4 157.29 65.053-112.68-7e-4 -157.29z" opacity=".08" style="mix-blend-mode:darken"/><path d="m1738.2 636.9 65.053-112.68h-130.11z" opacity=".08" style="mix-blend-mode:darken"/></g><g transform="translate(-200,120)"><path d="m1608.1 721.8-5e-4 228.5h130.11l5e-4 -228.5-65.053-112.68z" fill="#0b2925" opacity=".08" style="mix-blend-mode:overlay"/><path d="m1673.1 609.1 65.053 112.68h-130.11z" fill="#0b2925" opacity=".08" style="mix-blend-mode:overlay"/><path d="m1478 820.6-6e-4 129.69 65.054 112.68 4e-4 17.016h65.054v-259.38l-65.053-112.68z" fill="#73ba25" opacity=".08" style="mix-blend-mode:darken"/><path d="m1543 707.9 65.053 112.68h-130.11z" fill="#73ba25" opacity=".08" style="mix-blend-mode:darken"/></g><g transform="translate(-200,120)" fill="#0b2925"><path d="m1347.9 764.3 6e-4 115.33h130.11l-6e-4 -115.33-65.053-112.68z" opacity=".08" style="mix-blend-mode:overlay"/><path d="m1412.9 651.6 65.053 112.68h-130.11z" opacity=".08" style="mix-blend-mode:overlay"/><path d="m1217.7 679.2v56.338h130.11v-56.338l-65.053-112.68z" opacity=".08" style="mix-blend-mode:overlay"/><path d="m1282.8 566.5 65.053 112.68h-130.11z" opacity=".08" style="mix-blend-mode:overlay"/></g><path d="m887.6 911.9 2e-4 144.05h130.11l-2e-4 -144.05-65.053-112.68z" fill="#21a4df" opacity=".08" style="mix-blend-mode:hard-light"/><path d="m952.7 799.2 65.053 112.68h-130.11z" fill="#21a4df" opacity=".08" style="mix-blend-mode:hard-light"/><path d="m757.5 1012.9 1e-4 187.14h130.11l-1e-4 -187.14-65.053-112.68z" fill="#0b2925" opacity=".08" style="mix-blend-mode:overlay"/><path d="m822.6 900.2 65.053 112.68h-130.11z" fill="#0b2925" opacity=".08" style="mix-blend-mode:overlay"/><path d="m627.4 900.2-3e-4 65.306 65.054 112.68v121.84h65.054v-299.82l-65.053-112.68z" fill="#fff" opacity=".08" style="mix-blend-mode:hard-light"/><path d="m692.5 787.5 65.053 112.68h-130.11z" fill="#fff" opacity=".08" style="mix-blend-mode:hard-light"/><path d="m497.3 789.2-1e-4 75.3h130.11v-77.022l-65.053-112.68z" fill="#0b2925" opacity=".08" style="mix-blend-mode:overlay"/><path d="m562.4 674.8 65.053 112.68h-130.11z" fill="#0b2925" opacity=".08" style="mix-blend-mode:overlay"/><path d="m367.2 1007.5 3e-4 192.47h130.11l-3e-4 -192.47-65.053-112.68z" fill="#21a4df" opacity=".08" style="mix-blend-mode:hard-light"/><path d="m432.3 894.9 65.053 112.68h-130.11z" fill="#21a4df" opacity=".08" style="mix-blend-mode:hard-light"/><g transform="translate(-200,120)" fill="#0b2925"><path d="m437.1 774.9 9e-4 56.338h130.11l-9e-4 -56.338-65.053-112.68z" opacity=".08" style="mix-blend-mode:overlay"/><path d="m502.2 662.2 65.053 112.68h-130.11z" opacity=".08" style="mix-blend-mode:overlay"/><path d="m307 669.2-4e-4 67.23h130.11l4e-4 -67.23-65.053-112.68z" opacity=".08" style="mix-blend-mode:overlay"/><path d="m372 556.6 65.053 112.68h-130.11z" opacity=".08" style="mix-blend-mode:overlay"/><path d="m176.9 803.7v85.563h130.11v-85.563l-65.053-112.68z" opacity=".08" style="mix-blend-mode:overlay"/><path d="m241.9 691 65.053 112.68h-130.11z" opacity=".08" style="mix-blend-mode:overlay"/></g><g transform="translate(-200,120)"><path d="m46.8 691v388.98h130.11v-388.98l-65.053-112.68z" fill="#73ba25" opacity=".08" style="mix-blend-mode:darken"/><path d="m111.8 578.3 65.053 112.68h-130.11z" fill="#73ba25" opacity=".08" style="mix-blend-mode:darken"/><path d="m-83.3 911-1e-4 168.96h130.11l1e-4 -168.96-65.053-112.68z" fill="#0b2925" opacity=".08" style="mix-blend-mode:overlay"/><path d="m-18.3 798.4 65.053 112.68h-130.11z" fill="#0b2925" opacity=".08" style="mix-blend-mode:overlay"/></g><path d="m111.8 300.8v296.58h130.11v-296.58l-65.053-112.68z" fill="#21a4df" opacity=".08" style="mix-blend-mode:hard-light"/><path d="m176.9 188.1 65.053 112.68h-130.11z" fill="#21a4df" opacity=".08" style="mix-blend-mode:hard-light"/><g transform="translate(-200,120)" fill="#0b2925"><path d="m372 235.6 7e-4 220.02h130.11l-7e-4 -220.02-65.053-112.68z" opacity=".08" style="mix-blend-mode:overlay"/><path d="m437.1 122.9 65.053 112.68h-130.11z" opacity=".08" style="mix-blend-mode:overlay"/><path d="m502.2 348.3v163.68h130.11v-163.68l-65.053-112.68z" opacity=".08" style="mix-blend-mode:overlay"/><path d="m567.2 235.6 65.053 112.68h-130.11z" opacity=".08" style="mix-blend-mode:overlay"/><path d="m1868.3 906.8-1e-4 19.117 65.053 112.68 2e-4 41.381h65.055l-6e-4 -173.17-65.053-112.68z" opacity=".08" style="mix-blend-mode:overlay"/><path d="m1933.3 794.2 65.053 112.68h-130.11z" opacity=".08" style="mix-blend-mode:overlay"/></g><g transform="translate(-200,120)" fill="#73ba25"><path d="m372 1062.8-7e-4 -56.338 65.055-112.68-6e-4 -157.3h-130.11l6e-4 213.63" opacity=".08" style="mix-blend-mode:darken"/><path d="m307 736.5 65.053 112.68v157.3l65.054-112.68-7e-4 -157.3z" opacity=".08" style="mix-blend-mode:darken"/><path d="m372 849.1 65.053-112.68h-130.11z" opacity=".08" style="mix-blend-mode:darken"/></g><g transform="translate(-200,120)" fill="#fff"><path d="m241.9 1080v-17.228l65.054-112.68 4e-4 -60.842h-130.11v190.75" opacity=".08" style="mix-blend-mode:hard-light"/><path d="m176.9 889.3 65.053 112.68-4e-4 60.842 65.053-112.68 4e-4 -60.842z" opacity=".08" style="mix-blend-mode:hard-light"/><path d="m241.9 1001.9 65.053-112.68h-130.11z" opacity=".08" style="mix-blend-mode:hard-light"/></g><g transform="translate(-200,120)" fill="#0b2925"><path d="m567.2 1080v-248.81h-130.11l3e-4 62.567 65.053 112.68 3e-4 73.566" opacity=".08" style="mix-blend-mode:overlay"/><path d="m437.1 831.2 65.053 112.68v136.13h65.053v-248.81z" opacity=".08" style="mix-blend-mode:overlay"/><path d="m502.2 943.9 65.053-112.68h-130.11z" opacity=".08" style="mix-blend-mode:overlay"/><path d="m762.4 1080 6e-4 -121.84 65.053-112.68-3e-4 -100.96h-130.11l4e-4 335.47" opacity=".08" style="mix-blend-mode:overlay"/><path d="m697.3 744.5 65.053 112.68-3e-4 100.96 65.054-112.68-3e-4 -100.96z" opacity=".08" style="mix-blend-mode:overlay"/><path d="m762.4 857.2 65.053-112.68h-130.11z" opacity=".08" style="mix-blend-mode:overlay"/><path d="m241.9 1062.8-5e-4 17.228h130.11l5e-4 -17.228-65.053-112.68z" opacity=".08" style="mix-blend-mode:overlay"/><path d="m307 950.1 65.053 112.68h-130.11z" opacity=".08" style="mix-blend-mode:overlay"/><path d="m372 1006.4 2e-4 73.566h130.11l-2e-4 -73.566-65.053-112.68z" opacity=".08" style="mix-blend-mode:overlay"/><path d="m437.1 893.8 65.053 112.68h-130.11z" opacity=".08" style="mix-blend-mode:overlay"/><path d="m762.4 958.2v121.84h130.11v-121.84l-65.053-112.68z" opacity=".08" style="mix-blend-mode:overlay"/><path d="m827.4 845.5 65.053 112.68h-130.11z" opacity=".08" style="mix-blend-mode:overlay"/><path d="m1282.8 1080-7e-4 -45.185 65.054-112.68-7e-4 -186.58h-130.11l3e-4 344.44" opacity=".08" style="mix-blend-mode:overlay"/><path d="m1217.7 735.6 65.053 112.68 6e-4 186.58 65.054-112.68v-186.58z" opacity=".08" style="mix-blend-mode:overlay"/><path d="m1282.8 848.2 65.053-112.68h-130.11z" opacity=".08" style="mix-blend-mode:overlay"/></g><g transform="translate(-200,120)" fill="#fff"><path d="m1412.9 1034.8v28.169l65.054-112.68 7e-4 -70.698h-130.11l3e-4 42.529" opacity=".08" style="mix-blend-mode:hard-light"/><path d="m1347.9 879.6 65.053 112.68v70.699l65.054-112.68v-70.699z" opacity=".08" style="mix-blend-mode:hard-light"/><path d="m1412.9 992.3 65.053-112.68h-130.11z" opacity=".08" style="mix-blend-mode:hard-light"/></g><g transform="translate(-200,120)" fill="#0b2925"><path d="m1738.2 1080v-129.69h-130.11l-7e-4 129.69" opacity=".08" style="mix-blend-mode:overlay"/><path d="m1608.1 950.3 65.053 112.68v17.016h65.054v-129.69z" opacity=".08" style="mix-blend-mode:overlay"/><path d="m1673.1 1063 65.053-112.68h-130.11z" opacity=".08" style="mix-blend-mode:overlay"/></g><g transform="translate(-200,120)" fill="#73ba25"><path d="m1803.2 1080v-41.38l65.054-112.68 4e-4 -67.517h-130.11v221.57" opacity=".08" style="mix-blend-mode:darken"/><path d="m1738.2 858.4 65.053 112.68v67.517l65.054-112.68 4e-4 -67.517z" opacity=".08" style="mix-blend-mode:darken"/><path d="m1803.2 971.1 65.053-112.68h-130.11z" opacity=".08" style="mix-blend-mode:darken"/></g><g transform="translate(-200,120)" fill="#0b2925"><path d="m1217.7 1080-8e-4 -144.05h-130.11l1e-4 144.05" opacity=".08" style="mix-blend-mode:overlay"/><path d="m1087.6 936 65.053 112.68 5e-4 31.377h65.054l-9e-4 -144.05z" opacity=".08" style="mix-blend-mode:overlay"/><path d="m1152.7 1048.6 65.053-112.68h-130.11z" opacity=".08" style="mix-blend-mode:overlay"/><path d="m1282.8 1034.8 7e-4 45.185h130.11l-7e-4 -45.185-65.053-112.68z" opacity=".08" style="mix-blend-mode:overlay"/><path d="m1347.9 922.1 65.053 112.68h-130.11z" opacity=".08" style="mix-blend-mode:overlay"/><path d="m1412.9 1063 3e-4 17.016h130.11l-3e-4 -17.016-65.053-112.68z" opacity=".08" style="mix-blend-mode:overlay"/><path d="m1478 950.3 65.053 112.68h-130.11z" opacity=".08" style="mix-blend-mode:overlay"/></g><path d="m1603.2 1158.6v41.38h130.11v-41.38l-65.053-112.68z" fill="#21a4df" opacity=".08" style="mix-blend-mode:hard-light"/><path d="m1668.3 1045.9 65.053 112.68h-130.11z" fill="#21a4df" opacity=".08" style="mix-blend-mode:hard-light"/><path d="m1212.9 571.8 1e-4 98.807h130.11l-1e-4 -98.807-65.053-112.68z" fill="#0b2925" opacity=".08" style="mix-blend-mode:overlay"/><path d="m1278 459.2 65.053 112.68h-130.11z" fill="#0b2925" opacity=".08" style="mix-blend-mode:overlay"/><path d="m952.7 459.6v182.32h130.11v-182.32l-65.053-112.68z" fill="#fff" opacity=".08" style="mix-blend-mode:hard-light"/><path d="m1017.7 346.9 65.053 112.68h-130.11z" fill="#fff" opacity=".08" style="mix-blend-mode:hard-light"/><g transform="translate(-200,120)" fill="#0b2925"><path d="m1673.1 418.4v105.82h130.11v-105.82l-65.053-112.68z" opacity=".08" style="mix-blend-mode:overlay"/><path d="m1738.2 305.7 65.053 112.68h-130.11z" opacity=".08" style="mix-blend-mode:overlay"/><path d="m1803.2 681.5 65.053 112.68h-130.11z" opacity=".08" style="mix-blend-mode:overlay"/><path d="m1673.1 609.1 65.053 112.68h-130.11z" opacity=".08" style="mix-blend-mode:overlay"/></g><path d="m1343 827.9 65.053 112.68h-130.11z" fill="#73ba25" opacity=".08" style="mix-blend-mode:darken"/><g transform="translate(-200,120)" fill="#0b2925"><path d="m1412.9 651.6 65.053 112.68h-130.11z" opacity=".08" style="mix-blend-mode:overlay"/><path d="m1282.8 566.5 65.053 112.68h-130.11z" opacity=".08" style="mix-blend-mode:overlay"/><path d="m1022.6 780.2 65.053 112.68h-130.11z" opacity=".08" style="mix-blend-mode:overlay"/></g><path d="m692.5 787.5 65.053 112.68h-130.11z" fill="#fff" opacity=".08" style="mix-blend-mode:hard-light"/><path d="m562.4 674.8 65.053 112.68h-130.11z" fill="#0b2925" opacity=".08" style="mix-blend-mode:overlay"/><path d="m432.3 894.9 65.053 112.68h-130.11z" fill="#21a4df" opacity=".08" style="mix-blend-mode:hard-light"/><g transform="translate(-200,120)" fill="#0b2925"><path d="m502.2 662.2 65.053 112.68h-130.11z" opacity=".08" style="mix-blend-mode:overlay"/><path d="m372 556.6 65.053 112.68h-130.11z" opacity=".08" style="mix-blend-mode:overlay"/><path d="m241.9 691 65.053 112.68h-130.11z" opacity=".08" style="mix-blend-mode:overlay"/></g><path d="m-88.2 698.3 65.053 112.68h-130.11z" fill="#73ba25" opacity=".08" style="mix-blend-mode:darken"/><path d="m-218.3 918.4 65.053 112.68h-130.11z" fill="#0b2925" opacity=".08" style="mix-blend-mode:overlay"/><path d="m176.9 188.1 65.053 112.68h-130.11z" fill="#21a4df" opacity=".08" style="mix-blend-mode:hard-light"/><g transform="translate(-200,120)" fill="#0b2925"><path d="m437.1 122.9 65.053 112.68h-130.11z" opacity=".08" style="mix-blend-mode:overlay"/><path d="m567.2 235.6 65.053 112.68h-130.11z" opacity=".08" style="mix-blend-mode:overlay"/><path d="m1933.3 794.2 65.053 112.68h-130.11z" opacity=".08" style="mix-blend-mode:overlay"/><path d="m307 950.1 65.053 112.68h-130.11z" opacity=".08" style="mix-blend-mode:overlay"/><path d="m437.1 893.8 65.053 112.68h-130.11z" opacity=".08" style="mix-blend-mode:overlay"/><path d="m827.4 845.5 65.053 112.68h-130.11z" opacity=".08" style="mix-blend-mode:overlay"/><path d="m1347.9 922.1 65.053 112.68h-130.11z" opacity=".08" style="mix-blend-mode:overlay"/><path d="m1478 950.3 65.053 112.68h-130.11z" opacity=".08" style="mix-blend-mode:overlay"/></g><path d="m1668.3 1045.9 65.053 112.68h-130.11z" fill="#21a4df" opacity=".08" style="mix-blend-mode:hard-light"/><path d="m1278 459.2 65.053 112.68h-130.11z" fill="#0b2925" opacity=".08" style="mix-blend-mode:overlay"/><path d="m1538.2 425.7 65.053 112.68h-130.11z" fill="#0b2925" opacity=".08" style="mix-blend-mode:overlay"/><path d="m1017.7 346.9 65.053 112.68h-130.11z" fill="#fff" opacity=".08" style="mix-blend-mode:hard-light"/><path d="m952.7 799.2 65.053 112.68h-130.11z" fill="#21a4df" opacity=".08" style="mix-blend-mode:hard-light"/></g><g transform="scale(.5)"><path d="m0 0h1600v1200h-1600z" fill="#0c2a27" stroke-width=".96225" style="mix-blend-mode:soft-light"/></g><g transform="scale(.5)"><g transform="translate(-199.96 -.04)"><g transform="translate(0,120)" fill="none" stroke-linecap="round" stroke-linejoin="round" stroke-width="3"><g stroke="#35b9ab"><path d="m632.3 774.9 4e-4 -262.92h-130.11v150.25l65.052 112.68 6e-4 112.68" opacity=".5" style="mix-blend-mode:hard-light"/><path d="m502.2 511.9 65.053 112.68v262.92l65.053-112.68v-262.92z" opacity=".5" style="mix-blend-mode:hard-light"/><path d="m1738.2 794.2 1e-4 64.276h130.11l-1e-4 -64.276-65.053-112.68z" opacity=".5" style="mix-blend-mode:hard-light"/><path d="m1803.2 681.5 65.053 112.68h-130.11z" opacity=".5" style="mix-blend-mode:hard-light"/><path d="m567.2 624.6 65.053-112.68h-130.11z" opacity=".5" style="mix-blend-mode:hard-light"/><path d="m46.8 911v-220.02l65.055-112.68-6e-4 -177.52h-130.11v397.54" opacity=".5" style="mix-blend-mode:hard-light"/><path d="m-18.3 400.8 65.053 112.68v177.52l65.053-112.68v-177.52z" opacity=".5" style="mix-blend-mode:hard-light"/><path d="m46.8 513.5 65.053-112.68h-130.11z" opacity=".5" style="mix-blend-mode:hard-light"/><path d="m241.9 691 7e-4 -213.64h-130.11v100.96l65.054 112.68-8e-4 112.68" opacity=".5" style="mix-blend-mode:hard-light"/><path d="m111.8 477.4 65.053 112.68v213.64l65.054-112.68 6e-4 -213.64z" opacity=".5" style="mix-blend-mode:hard-light"/><path d="m176.9 590.1 65.053-112.68h-130.11z" opacity=".5" style="mix-blend-mode:hard-light"/></g><g stroke="#73ba25"><path d="m307 803.7 8e-4 -134.46 65.054-112.68-6e-4 -239.3h-130.11l-8e-4 373.76" opacity=".5" style="mix-blend-mode:hard-light"/><path d="m241.9 317.3 65.053 112.68 6e-4 239.3 65.053-112.68-6e-4 -239.3z" opacity=".5" style="mix-blend-mode:hard-light"/><path d="m307 429.9 65.053-112.68h-130.11z" opacity=".5" style="mix-blend-mode:hard-light"/></g><g stroke="#35b9ab"><path d="m502.2 662.2v-206.58h-130.11v100.96l65.053 112.68v105.62" opacity=".5" style="mix-blend-mode:hard-light"/><path d="m372 455.6 65.053 112.68v206.58l65.054-112.68 9e-4 -206.58z" opacity=".5" style="mix-blend-mode:hard-light"/><path d="m437.1 568.3 65.053-112.68h-130.11z" opacity=".5" style="mix-blend-mode:hard-light"/><path d="m1217.7 791.9v-112.68l65.055-112.68v-44.621h-130.11l5e-4 157.3" opacity=".5" style="mix-blend-mode:hard-light"/><path d="m1152.7 521.9 65.053 112.68 6e-4 44.622 65.054-112.68v-44.621z" opacity=".5" style="mix-blend-mode:hard-light"/><path d="m1217.7 634.6 65.053-112.68h-130.11z" opacity=".5" style="mix-blend-mode:hard-light"/></g><g stroke="#73ba25"><path d="m697.3 887.5v-218.3l65.052-114.4v-155.57h-130.11v375.6" opacity=".5" style="mix-blend-mode:hard-light"/><path d="m632.3 399.3 65.053 112.68v155.57l65.053-112.68v-155.57z" opacity=".5" style="mix-blend-mode:hard-light"/><path d="m697.3 511.9 65.053-112.68h-130.11z" opacity=".5" style="mix-blend-mode:hard-light"/></g><g stroke="#21a4df"><path d="m892.5 667.5-2e-4 -191.69h-130.11l-4e-4 79.014 65.053 112.68 6e-4 112.68" opacity=".5" style="mix-blend-mode:hard-light"/><path d="m762.4 475.8 65.053 112.68-3e-4 191.69 65.053-112.68 3e-4 -191.69z" opacity=".5" style="mix-blend-mode:hard-light"/><path d="m827.4 588.5 65.053-112.68h-130.11z" opacity=".5" style="mix-blend-mode:hard-light"/></g><g stroke="#35b9ab"><path d="m1022.6 780.2-9e-4 -388.1h-130.11l3e-4 275.42 65.053 112.68 6e-4 112.68" opacity=".5" style="mix-blend-mode:hard-light"/><path d="m892.5 392.1 65.053 112.68-3e-4 388.1 65.054-112.68-3e-4 -388.1z" opacity=".5" style="mix-blend-mode:hard-light"/><path d="m957.5 504.8 65.053-112.68h-130.11z" opacity=".5" style="mix-blend-mode:hard-light"/><path d="m1087.6 892.9-1e-4 -100.96 65.054-112.68-5e-4 -213.63h-130.11v314.59" opacity=".5" style="mix-blend-mode:hard-light"/><path d="m1022.6 465.6 65.053 112.68-1e-4 213.63 65.054-112.68-6e-4 -213.63z" opacity=".5" style="mix-blend-mode:hard-light"/><path d="m1087.6 578.3 65.053-112.68h-130.11z" opacity=".5" style="mix-blend-mode:hard-light"/></g><g stroke="#fff"><path d="m502.2 235.6-7e-4 112.68 65.054-112.68-5e-4 -213.63h-130.11l5e-4 100.96" opacity=".5" style="mix-blend-mode:hard-light"/><path d="m437.1 21.9 65.053 112.68-1e-4 213.63 65.054-112.68-6e-4 -213.63z" opacity=".5" style="mix-blend-mode:hard-light"/><path d="m502.2 134.6 65.053-112.68h-130.11z" opacity=".5" style="mix-blend-mode:hard-light"/></g><g stroke="#35b9ab"><path d="m1868.3 794.2 3e-4 112.68 65.054-112.68-9e-4 -213.63h-130.11v100.96" opacity=".5" style="mix-blend-mode:hard-light"/><path d="m1803.2 580.5 65.053 112.68-3e-4 213.64 65.054-112.68-3e-4 -213.64z" opacity=".5" style="mix-blend-mode:hard-light"/><path d="m1868.3 693.2 65.053-112.68h-130.11z" opacity=".5" style="mix-blend-mode:hard-light"/><path d="m1347.9 679.2 2e-4 85.059 65.054-112.68-9e-4 -242.36h-130.11v157.3" opacity=".5" style="mix-blend-mode:hard-light"/><path d="m1282.8 409.2 65.053 112.68-3e-4 242.36 65.054-112.68-3e-4 -242.36z" opacity=".5" style="mix-blend-mode:hard-light"/><path d="m1347.9 521.9 65.053-112.68h-130.11z" opacity=".5" style="mix-blend-mode:hard-light"/><path d="m1478 764.3-2e-4 56.338 65.053-112.68 1e-4 -157.3h-130.11v100.96" opacity=".5" style="mix-blend-mode:hard-light"/><path d="m1412.9 550.6 65.053 112.68-6e-4 157.3 65.055-112.68-6e-4 -157.3z" opacity=".5" style="mix-blend-mode:hard-light"/><path d="m1478 663.3 65.053-112.68h-130.11z" opacity=".5" style="mix-blend-mode:hard-light"/></g><g stroke="#21a4df"><path d="m1608.1 820.6 5e-4 -98.808 65.055-112.68v-157.3h-130.11l-6e-4 256.1" opacity=".5" style="mix-blend-mode:hard-light"/><path d="m1543 451.8 65.053 112.68v157.3l65.054-112.68-6e-4 -157.3z" opacity=".5" style="mix-blend-mode:hard-light"/><path d="m1608.1 564.5 65.053-112.68h-130.11z" opacity=".5" style="mix-blend-mode:hard-light"/></g><g stroke="#73ba25"><path d="m1738.2 721.8v72.342l65.053-112.68-6e-4 -157.29h-130.11v84.952" opacity=".5" style="mix-blend-mode:hard-light"/><path d="m1673.1 524.2 65.053 112.68 6e-4 157.29 65.053-112.68-7e-4 -157.29z" opacity=".5" style="mix-blend-mode:hard-light"/><path d="m1738.2 636.9 65.053-112.68h-130.11z" opacity=".5" style="mix-blend-mode:hard-light"/></g><path d="m1608.1 721.8-5e-4 228.5h130.11l5e-4 -228.5-65.053-112.68z" opacity=".5" stroke="#35b9ab" style="mix-blend-mode:hard-light"/><path d="m1673.1 609.1 65.053 112.68h-130.11z" opacity=".5" stroke="#35b9ab" style="mix-blend-mode:hard-light"/><path d="m1608.1 1080v-259.38l-65.053-112.68-65.055 112.67-6e-4 129.69 65.054 112.68 4e-4 17.016" opacity=".5" stroke="#73ba25" style="mix-blend-mode:hard-light"/><path d="m1543 707.9 65.053 112.68h-130.11z" opacity=".5" stroke="#73ba25" style="mix-blend-mode:hard-light"/><g stroke="#35b9ab"><path d="m1347.9 764.3 6e-4 115.33h130.11l-6e-4 -115.33-65.053-112.68z" opacity=".5" style="mix-blend-mode:hard-light"/><path d="m1412.9 651.6 65.053 112.68h-130.11z" opacity=".5" style="mix-blend-mode:hard-light"/><path d="m1217.7 679.2v56.338h130.11v-56.338l-65.053-112.68z" opacity=".5" style="mix-blend-mode:hard-light"/><path d="m1282.8 566.5 65.053 112.68h-130.11z" opacity=".5" style="mix-blend-mode:hard-light"/></g><path d="m1087.6 791.9 2e-4 144.05h130.11l-2e-4 -144.05-65.053-112.68z" opacity=".5" stroke="#21a4df" style="mix-blend-mode:hard-light"/><path d="m1152.7 679.2 65.053 112.68h-130.11z" opacity=".5" stroke="#21a4df" style="mix-blend-mode:hard-light"/><path d="m1087.6 1080.1-1e-4 -187.14-65.053-112.68-65.057 112.68 1e-4 187.14" opacity=".5" stroke="#35b9ab" style="mix-blend-mode:hard-light"/><path d="m1022.6 780.2 65.053 112.68h-130.11z" opacity=".5" stroke="#35b9ab" style="mix-blend-mode:hard-light"/><path d="m957.5 1080.1v-299.82l-65.053-112.68-65.055 112.67-3e-4 65.306 65.054 112.68v121.84" opacity=".5" stroke="#fff" style="mix-blend-mode:hard-light"/><path d="m892.5 667.5 65.053 112.68h-130.11z" opacity=".5" stroke="#fff" style="mix-blend-mode:hard-light"/><path d="m697.3 669.2-1e-4 75.3h130.11v-77.022l-65.053-112.68z" opacity=".5" stroke="#35b9ab" style="mix-blend-mode:hard-light"/><path d="m762.4 554.8 65.053 112.68h-130.11z" opacity=".5" stroke="#35b9ab" style="mix-blend-mode:hard-light"/><path d="m697.3 1080-3e-4 -192.47-65.053-112.68-65.057 112.68 3e-4 192.47" opacity=".5" stroke="#21a4df" style="mix-blend-mode:hard-light"/><path d="m632.3 774.9 65.053 112.68h-130.11z" opacity=".5" stroke="#21a4df" style="mix-blend-mode:hard-light"/><g stroke="#35b9ab"><path d="m437.1 774.9 9e-4 56.338h130.11l-9e-4 -56.338-65.053-112.68z" opacity=".5" style="mix-blend-mode:hard-light"/><path d="m502.2 662.2 65.053 112.68h-130.11z" opacity=".5" style="mix-blend-mode:hard-light"/><path d="m307 669.2-4e-4 67.23h130.11l4e-4 -67.23-65.053-112.68z" opacity=".5" style="mix-blend-mode:hard-light"/><path d="m372 556.6 65.053 112.68h-130.11z" opacity=".5" style="mix-blend-mode:hard-light"/><path d="m176.9 803.7v85.563h130.11v-85.563l-65.053-112.68z" opacity=".5" style="mix-blend-mode:hard-light"/><path d="m241.9 691 65.053 112.68h-130.11z" opacity=".5" style="mix-blend-mode:hard-light"/></g><path d="m176.9 1080v-388.98l-65.053-112.68-65.057 112.68v388.98" opacity=".5" stroke="#73ba25" style="mix-blend-mode:hard-light"/><path d="m111.8 578.3 65.053 112.68h-130.11z" opacity=".5" stroke="#73ba25" style="mix-blend-mode:hard-light"/><path d="m46.8 1080 1e-4 -168.96-65.053-112.68-65.057 112.68-1e-4 168.96" opacity=".5" stroke="#35b9ab" style="mix-blend-mode:hard-light"/><path d="m-18.3 798.4 65.053 112.68h-130.11z" opacity=".5" stroke="#35b9ab" style="mix-blend-mode:hard-light"/><path d="m111.8 180.8v296.58h130.11v-296.58l-65.053-112.68z" opacity=".5" stroke="#21a4df" style="mix-blend-mode:hard-light"/><path d="m176.9 68.1 65.053 112.68h-130.11z" opacity=".5" stroke="#21a4df" style="mix-blend-mode:hard-light"/><g stroke="#35b9ab"><path d="m372 235.6 7e-4 220.02h130.11l-7e-4 -220.02-65.053-112.68z" opacity=".5" style="mix-blend-mode:hard-light"/><path d="m437.1 122.9 65.053 112.68h-130.11z" opacity=".5" style="mix-blend-mode:hard-light"/><path d="m502.2 348.3v163.68h130.11v-163.68l-65.053-112.68z" opacity=".5" style="mix-blend-mode:hard-light"/><path d="m567.2 235.6 65.053 112.68h-130.11z" opacity=".5" style="mix-blend-mode:hard-light"/><path d="m1998.4 1080-6e-4 -173.17-65.053-112.68-65.054 112.67-1e-4 19.117 65.053 112.68 2e-4 41.381" opacity=".5" style="mix-blend-mode:hard-light"/><path d="m1933.3 794.2 65.053 112.68h-130.11z" opacity=".5" style="mix-blend-mode:hard-light"/></g><g stroke="#73ba25"><path d="m372 1062.8-7e-4 -56.338 65.055-112.68-6e-4 -157.3h-130.11l6e-4 213.63" opacity=".5" style="mix-blend-mode:hard-light"/><path d="m307 736.5 65.053 112.68v157.3l65.054-112.68-7e-4 -157.3z" opacity=".5" style="mix-blend-mode:hard-light"/><path d="m372 849.1 65.053-112.68h-130.11z" opacity=".5" style="mix-blend-mode:hard-light"/></g><g stroke="#fff"><path d="m241.9 1080v-17.228l65.054-112.68 4e-4 -60.842h-130.11v190.75" opacity=".5" style="mix-blend-mode:hard-light"/><path d="m176.9 889.3 65.053 112.68-4e-4 60.842 65.053-112.68 4e-4 -60.842z" opacity=".5" style="mix-blend-mode:hard-light"/><path d="m241.9 1001.9 65.053-112.68h-130.11z" opacity=".5" style="mix-blend-mode:hard-light"/></g><g stroke="#35b9ab"><path d="m567.2 1080v-248.81h-130.11l3e-4 62.567 65.053 112.68 3e-4 73.566" opacity=".5" style="mix-blend-mode:hard-light"/><path d="m567.2 1080.1v-248.81h-130.11l65.053 112.68v136.13" opacity=".5" style="mix-blend-mode:hard-light"/><path d="m502.2 943.9 65.053-112.68h-130.11z" opacity=".5" style="mix-blend-mode:hard-light"/><path d="m762.4 1080 6e-4 -121.84 65.053-112.68-3e-4 -100.96h-130.11l4e-4 335.47" opacity=".5" style="mix-blend-mode:hard-light"/><path d="m697.3 744.5 65.053 112.68-3e-4 100.96 65.054-112.68-3e-4 -100.96z" opacity=".5" style="mix-blend-mode:hard-light"/><path d="m762.4 857.2 65.053-112.68h-130.11z" opacity=".5" style="mix-blend-mode:hard-light"/><path d="m372 1080.1 5e-4 -17.228-65.053-112.68-65.057 112.68-5e-4 17.228" opacity=".5" style="mix-blend-mode:hard-light"/><path d="m307 950.1 65.053 112.68h-130.11z" opacity=".5" style="mix-blend-mode:hard-light"/><path d="m502.1 1080-2e-4 -73.566-65.053-112.68-65.057 112.68 2e-4 73.566" opacity=".5" style="mix-blend-mode:hard-light"/><path d="m437.1 893.8 65.053 112.68h-130.11z" opacity=".5" style="mix-blend-mode:hard-light"/><path d="m892.5 1080.1v-121.84l-65.053-112.68-65.057 112.68v121.84" opacity=".5" style="mix-blend-mode:hard-light"/><path d="m827.4 845.5 65.053 112.68h-130.11z" opacity=".5" style="mix-blend-mode:hard-light"/><path d="m1282.8 1080-7e-4 -45.185 65.054-112.68-7e-4 -186.58h-130.11l3e-4 344.44" opacity=".5" style="mix-blend-mode:hard-light"/><path d="m1217.7 735.6 65.053 112.68 6e-4 186.58 65.054-112.68v-186.58z" opacity=".5" style="mix-blend-mode:hard-light"/><path d="m1282.8 848.2 65.053-112.68h-130.11z" opacity=".5" style="mix-blend-mode:hard-light"/></g><g stroke="#fff"><path d="m1412.9 1034.8v28.169l65.054-112.68 7e-4 -70.698h-130.11l3e-4 42.529" opacity=".5" style="mix-blend-mode:hard-light"/><path d="m1347.9 879.6 65.053 112.68v70.699l65.054-112.68v-70.699z" opacity=".5" style="mix-blend-mode:hard-light"/><path d="m1412.9 992.3 65.053-112.68h-130.11z" opacity=".5" style="mix-blend-mode:hard-light"/></g><g stroke="#35b9ab"><path d="m1738.2 1080v-129.69h-130.11l-7e-4 129.69" opacity=".5" style="mix-blend-mode:hard-light"/><path d="m1738.2 1080v-129.69l-130.11-0.01 65.053 112.68v17.016" opacity=".5" style="mix-blend-mode:hard-light"/><path d="m1673.1 1063 65.053-112.68h-130.11z" opacity=".5" style="mix-blend-mode:hard-light"/></g><g stroke="#73ba25"><path d="m1803.2 1080v-41.38l65.054-112.68 4e-4 -67.517h-130.11v221.57" opacity=".5" style="mix-blend-mode:hard-light"/><path d="m1738.2 858.4 65.053 112.68v67.517l65.054-112.68 4e-4 -67.517z" opacity=".5" style="mix-blend-mode:hard-light"/><path d="m1803.2 971.1 65.053-112.68h-130.11z" opacity=".5" style="mix-blend-mode:hard-light"/></g><g stroke="#35b9ab"><path d="m1217.7 1080-8e-4 -144.05h-130.11l1e-4 144.05" opacity=".5" style="mix-blend-mode:hard-light"/><path d="m1217.7 1080.1-9e-4 -144.05-130.11-0.01 65.053 112.68 5e-4 31.377" opacity=".5" style="mix-blend-mode:hard-light"/><path d="m1152.7 1048.6 65.053-112.68h-130.11z" opacity=".5" style="mix-blend-mode:hard-light"/><path d="m1412.9 1080-7e-4 -45.185-65.053-112.68-65.057 112.68 7e-4 45.185" opacity=".5" style="mix-blend-mode:hard-light"/><path d="m1347.9 922.1 65.053 112.68h-130.11z" opacity=".5" style="mix-blend-mode:hard-light"/><path d="m1543 1080.1-3e-4 -17.016-65.053-112.68-65.057 112.68 3e-4 17.016" opacity=".5" style="mix-blend-mode:hard-light"/><path d="m1478 950.3 65.053 112.68h-130.11z" opacity=".5" style="mix-blend-mode:hard-light"/></g><path d="m1933.3 1080v-41.38l-65.053-112.68-65.057 112.68v41.38" opacity=".5" stroke="#21a4df" style="mix-blend-mode:hard-light"/><path d="m1868.3 925.9 65.053 112.68h-130.11z" opacity=".5" stroke="#21a4df" style="mix-blend-mode:hard-light"/><path d="m1412.9 451.8 1e-4 98.807h130.11l-1e-4 -98.807-65.053-112.68z" opacity=".5" stroke="#35b9ab" style="mix-blend-mode:hard-light"/><path d="m1478 339.2 65.053 112.68h-130.11z" opacity=".5" stroke="#35b9ab" style="mix-blend-mode:hard-light"/><path d="m1152.7 339.6v182.32h130.11v-182.32l-65.053-112.68z" opacity=".5" stroke="#fff" style="mix-blend-mode:hard-light"/><path d="m1217.7 226.9 65.053 112.68h-130.11z" opacity=".5" stroke="#fff" style="mix-blend-mode:hard-light"/><g stroke="#35b9ab"><path d="m1673.1 418.4v105.82h130.11v-105.82l-65.053-112.68z" opacity=".5" style="mix-blend-mode:hard-light"/><path d="m1738.2 305.7 65.053 112.68h-130.11z" opacity=".5" style="mix-blend-mode:hard-light"/><path d="m1803.2 681.5 65.053 112.68h-130.11z" opacity=".5" style="mix-blend-mode:hard-light"/><path d="m1673.1 609.1 65.053 112.68h-130.11z" opacity=".5" style="mix-blend-mode:hard-light"/></g><path d="m1543 707.9 65.053 112.68h-130.11z" opacity=".5" stroke="#73ba25" style="mix-blend-mode:hard-light"/><g stroke="#35b9ab"><path d="m1412.9 651.6 65.053 112.68h-130.11z" opacity=".5" style="mix-blend-mode:hard-light"/><path d="m1282.8 566.5 65.053 112.68h-130.11z" opacity=".5" style="mix-blend-mode:hard-light"/><path d="m1022.6 780.2 65.053 112.68h-130.11z" opacity=".5" style="mix-blend-mode:hard-light"/></g><path d="m892.5 667.5 65.053 112.68h-130.11z" opacity=".5" stroke="#fff" style="mix-blend-mode:hard-light"/><path d="m1217.7 227 65.053 112.68h-130.11z" opacity=".5" stroke="#fff" style="mix-blend-mode:hard-light"/><path d="m762.4 554.8 65.053 112.68h-130.11z" opacity=".5" stroke="#35b9ab" style="mix-blend-mode:hard-light"/><path d="m632.3 774.9 65.053 112.68h-130.11z" opacity=".5" stroke="#21a4df" style="mix-blend-mode:hard-light"/><g stroke="#35b9ab"><path d="m502.2 662.2 65.053 112.68h-130.11z" opacity=".5" style="mix-blend-mode:hard-light"/><path d="m372 556.6 65.053 112.68h-130.11z" opacity=".5" style="mix-blend-mode:hard-light"/><path d="m241.9 691 65.053 112.68h-130.11z" opacity=".5" style="mix-blend-mode:hard-light"/></g><path d="m111.8 578.3 65.053 112.68h-130.11z" opacity=".5" stroke="#73ba25" style="mix-blend-mode:hard-light"/><path d="m-18.3 798.4 65.053 112.68h-130.11z" opacity=".5" stroke="#35b9ab" style="mix-blend-mode:hard-light"/><path d="m176.9 68.1 65.053 112.68h-130.11z" opacity=".5" stroke="#21a4df" style="mix-blend-mode:hard-light"/><g stroke="#35b9ab"><path d="m437.1 122.9 65.053 112.68h-130.11z" opacity=".5" style="mix-blend-mode:hard-light"/><path d="m567.2 235.6 65.053 112.68h-130.11z" opacity=".5" style="mix-blend-mode:hard-light"/><path d="m1933.3 794.2 65.053 112.68h-130.11z" opacity=".5" style="mix-blend-mode:hard-light"/><path d="m307 950.1 65.053 112.68h-130.11z" opacity=".5" style="mix-blend-mode:hard-light"/><path d="m437.1 893.8 65.053 112.68h-130.11z" opacity=".5" style="mix-blend-mode:hard-light"/><path d="m827.4 845.5 65.053 112.68h-130.11z" opacity=".5" style="mix-blend-mode:hard-light"/><path d="m1347.9 922.1 65.053 112.68h-130.11z" opacity=".5" style="mix-blend-mode:hard-light"/><path d="m1478 950.3 65.053 112.68h-130.11z" opacity=".5" style="mix-blend-mode:hard-light"/></g><path d="m1868.3 925.9 65.053 112.68h-130.11z" opacity=".5" stroke="#21a4df" style="mix-blend-mode:hard-light"/><path d="m1478 339.2 65.053 112.68h-130.11z" opacity=".5" stroke="#35b9ab" style="mix-blend-mode:hard-light"/><path d="m1738.2 305.7 65.053 112.68h-130.11z" opacity=".5" stroke="#35b9ab" style="mix-blend-mode:hard-light"/><path d="m1152.7 679.2 65.053 112.68h-130.11z" opacity=".5" stroke="#21a4df" style="mix-blend-mode:hard-light"/></g></g></g></svg>
