<?xml version="1.0" encoding="UTF-8"?>
<svg id="SVGRoot" width="4096" height="4096" version="1.1" viewBox="0 0 4096 4096" xml:space="preserve" xmlns="http://www.w3.org/2000/svg" xmlns:cc="http://creativecommons.org/ns#" xmlns:dc="http://purl.org/dc/elements/1.1/" xmlns:rdf="http://www.w3.org/1999/02/22-rdf-syntax-ns#"><metadata><rdf:RDF><cc:Work rdf:about=""><dc:format>image/svg+xml</dc:format><dc:type rdf:resource="http://purl.org/dc/dcmitype/StillImage"/></cc:Work></rdf:RDF></metadata><path d="m0 0h4096v4096h-4096z" fill="#fbc75d" stroke-width="2.8444" style="mix-blend-mode:soft-light"/><g fill="#21a4df" stroke-width="2.1333"><path d="m2335.6 2419.4v207.07l138.78-138.78v-607.68l-138.78-138.78-138.78 138.78v400.62" opacity=".1" style="mix-blend-mode:hard-light"/><path d="m2474.2 2487.7v-607.68l-138.78-138.78-138.78 138.78 138.78 138.78v607.68" opacity=".1" style="mix-blend-mode:hard-light"/><rect transform="rotate(45)" x="2882.8" y="-420.18" width="196.27" height="196.27" opacity=".1" style="mix-blend-mode:hard-light"/></g><g stroke-width="2.1333"><path d="m1502.8 2239v134.33l138.78 138.78v-677.08l-138.78-138.78-138.78 138.78v265.17" opacity=".1" style="mix-blend-mode:soft-light"/><path d="m1641.6 2512.1v-677.08l-138.78-138.78-138.78 138.78 138.78 138.78-3e-4 399.51" opacity=".1" style="mix-blend-mode:soft-light"/><rect transform="rotate(45)" x="2262.1" y="136.81" width="196.27" height="196.27" opacity=".1" style="mix-blend-mode:soft-light"/></g><g fill="#21a4df" stroke-width="2.1333"><path d="m1780.4 2720.3v-200.18l138.78-138.78v-109.36l-138.78-138.78-138.78 138.78v309.55" opacity=".1" style="mix-blend-mode:hard-light"/><path d="m1919.1 2381.4-8e-4 -109.36-138.78-138.78-138.78 138.78 138.78 138.78 9e-4 109.36" opacity=".1" style="mix-blend-mode:hard-light"/><rect transform="rotate(45)" x="2767.3" y="249.5" width="196.27" height="196.27" opacity=".1" style="mix-blend-mode:hard-light"/></g><g stroke-width="2.1333"><path d="m2057.9 2520.1 1e-4 -100.7 138.78-138.78v-284.84l-138.78-138.78-138.78 138.78v385.54" opacity=".1" style="mix-blend-mode:soft-light"/><path d="m2196.7 2280.7v-284.84l-138.78-138.78-138.78 138.78 138.78 138.78v284.84" opacity=".1" style="mix-blend-mode:soft-light"/><rect transform="rotate(45)" x="2768.3" y="-142.06" width="196.27" height="196.27" opacity=".1" style="mix-blend-mode:soft-light"/></g><g fill="#73ba25" stroke-width="2.1333"><path d="m2613.1 2626.5v20.709l138.78-138.78v-315.88l-138.78-138.78-138.78 138.78v295.17" opacity=".1" style="mix-blend-mode:darken"/><path d="m2751.8 2508.4-2e-4 -315.88-138.78-138.78-138.79 138.78 138.78 138.78v315.88" opacity=".1" style="mix-blend-mode:darken"/><rect transform="rotate(45)" x="3299.9" y="-395.47" width="196.27" height="196.27" opacity=".1" style="mix-blend-mode:darken"/></g><g stroke-width="2.1333"><path d="m2890.7 2647.2-5e-4 239.27 138.78-138.78-8e-4 -324.91-138.78-138.78-138.78 138.78v85.63" opacity=".1" style="mix-blend-mode:soft-light"/><path d="m3029.3 2747.7 3e-4 -324.91-138.79-138.78-138.78 138.78 138.78 138.78 6e-4 324.91" opacity=".1" style="mix-blend-mode:soft-light"/><rect transform="rotate(45)" x="3659.1" y="-428.93" width="196.27" height="196.27" opacity=".1" style="mix-blend-mode:soft-light"/></g><g fill="#21a4df" stroke-width="2.1333"><path d="m3168.2 2886.5v-217.19l138.78-138.78 9e-4 -607.68-138.78-138.78-138.78 138.78-2e-4 824.87" opacity=".1" style="mix-blend-mode:hard-light"/><path d="m3306.9 2530.5v-607.68l-138.78-138.78-138.78 138.78 138.78 138.78v607.68" opacity=".1" style="mix-blend-mode:hard-light"/><rect transform="rotate(45)" x="3501.7" y="-978.73" width="196.27" height="196.27" opacity=".1" style="mix-blend-mode:hard-light"/></g><g fill="#73ba25" stroke-width="2.1333"><path d="m3445.8 2669.3-0.331 164.86 138.78-138.78 0.3368-364.8-138.78-138.78-138.78 138.78v199.94" opacity=".1" style="mix-blend-mode:darken"/><path d="m3584.2 2695.4 0.3338-364.8-138.78-138.78-138.78 138.78 138.78 138.78-0.3358 364.8" opacity=".1" style="mix-blend-mode:darken"/><rect transform="rotate(45)" x="3986.4" y="-886.67" width="196.27" height="196.27" opacity=".1" style="mix-blend-mode:darken"/></g><g stroke-width="2.1333"><path d="m3722.9 2834.2v214.46l138.79-138.78v-708.31l-137.72-138.78-139.85 138.78v493.85" opacity=".1" style="mix-blend-mode:soft-light"/><path d="m3861.8 2909.8v-708.31l-137.72-138.78-138.78 138.78 137.72 138.78v708.31" opacity=".1" style="mix-blend-mode:soft-light"/><rect transform="rotate(45)" x="4092" y="-1174.7" width="196.27" height="196.27" opacity=".1" style="mix-blend-mode:soft-light"/><path d="m4000.6 3048.6v1047.4h138.78v-1655.1l-138.78-138.78-138.78 138.78 4e-4 468.91" opacity=".1" style="mix-blend-mode:soft-light"/><path d="m4139.3 4096v-1655.1l-138.78-138.78-138.78 138.78 138.78 138.78v1516.3" opacity=".1" style="mix-blend-mode:soft-light"/><rect transform="rotate(45)" x="4456.8" y="-1200.9" width="196.27" height="196.27" opacity=".1" style="mix-blend-mode:soft-light"/></g><g fill="#fff" stroke-width="2.1333"><path d="m1225.3 2481v-241.94l138.78-138.78v-504.53l-138.78-138.78-138.78 138.78v746.47" opacity=".1" style="mix-blend-mode:hard-light"/><path d="m1364 2100.2v-504.53l-138.78-138.78-138.78 138.78 138.78 138.78v504.53" opacity=".1" style="mix-blend-mode:hard-light"/><rect transform="rotate(45)" x="1896.6" y="163.84" width="196.27" height="196.27" opacity=".1" style="mix-blend-mode:hard-light"/></g><g fill="#21a4df" stroke-width="2.1333"><path d="m947.69 2713.6 2e-3 -232.66 138.78-138.78-9e-4 -281.15-138.78-138.78-138.78 138.78-1e-3 513.81" opacity=".1" style="mix-blend-mode:hard-light"/><path d="m1086.5 2342.2v-281.15l-138.78-138.78-138.78 138.78 138.78 138.78 1e-3 281.15" opacity=".1" style="mix-blend-mode:hard-light"/><rect transform="rotate(45)" x="2029.4" y="689.13" width="196.27" height="196.27" opacity=".1" style="mix-blend-mode:hard-light"/></g><g stroke-width="2.1333"><path d="m670.12 4096-1e-3 -1382.4 138.78-138.78-4.9e-4 -198.02-138.78-138.78-138.78 138.78v1719.2" opacity=".1" style="mix-blend-mode:soft-light"/><path d="m808.9 2574.8 1e-3 -198.02-138.78-138.78-138.78 138.78 138.78 138.78 2e-3 198.02" opacity=".1" style="mix-blend-mode:soft-light"/><rect transform="rotate(45)" x="2056.4" y="1108.7" width="196.27" height="196.27" opacity=".1" style="mix-blend-mode:soft-light"/></g><g fill="#73ba25" stroke-width="2.1333"><path d="m531.35 2656.9-4e-3 -908.89-138.78-138.78-138.78 138.78 2e-3 440.96 138.78 138.78-1e-3 190.35" opacity=".1" style="mix-blend-mode:darken"/><path d="m531.35 2656.9-2e-3 -908.89-138.78-138.78-138.78 138.78 138.78 138.78 2e-3 631.32" opacity=".1" style="mix-blend-mode:darken"/><rect transform="rotate(45)" x="1415.4" y="860.3" width="196.27" height="196.27" opacity=".1" style="mix-blend-mode:darken"/></g><g fill="#fff" stroke-width="2.1333"><path d="m115 4106-1e-3 -1778.2 138.78-138.78 8.3e-4 -203.22-138.78-138.78-138.78 138.78v2120.2" opacity=".1" style="mix-blend-mode:hard-light"/><path d="m253.78 2188.9 2e-3 -203.22-138.78-138.78-138.78 138.78 138.78 138.78-1.9e-4 203.22" opacity=".1" style="mix-blend-mode:hard-light"/><rect transform="rotate(45)" x="1387.3" y="1224.7" width="196.27" height="196.27" opacity=".1" style="mix-blend-mode:hard-light"/></g><g stroke-width="2.1333"><path d="m253.78 4096-4e-4 -1439.1 138.78-138.78 6.8e-4 -190.35-138.78-138.78-138.78 138.78v1768.3" opacity=".1" style="mix-blend-mode:soft-light"/><path d="m392.55 2518.1 1e-3 -190.35-138.78-138.78-138.78 138.78 138.78 138.78-7.5e-4 190.35" opacity=".1" style="mix-blend-mode:soft-light"/><rect transform="rotate(45)" x="1727.3" y="1368.4" width="196.27" height="196.27" opacity=".1" style="mix-blend-mode:soft-light"/></g><g fill="#21a4df" stroke-width="2.1333"><path d="m531.35 4106-1e-3 -1449.1-138.78-138.78-138.78 138.78 4.1e-4 1449.1" opacity=".1" style="mix-blend-mode:hard-light"/><path d="m531.35 4106 2e-3 -1449.1-138.78-138.78-138.78 138.78 138.78 138.78-2e-3 1310.3" opacity=".1" style="mix-blend-mode:hard-light"/><rect transform="rotate(45)" x="2058.1" y="1503" width="196.27" height="196.27" opacity=".1" style="mix-blend-mode:hard-light"/></g><g stroke-width="2.1333"><path d="m1086.5 3043.3-5e-4 -196.55 138.78-138.78v-226.97l-138.78-138.78-138.78 138.78-1e-3 423.51" opacity=".1" style="mix-blend-mode:soft-light"/><path d="m1225.2 2707.9v-226.97l-138.78-138.78-138.78 138.78 138.78 138.78v226.97" opacity=".1" style="mix-blend-mode:soft-light"/><rect transform="rotate(45)" x="2424.4" y="887.93" width="196.27" height="196.27" opacity=".1" style="mix-blend-mode:soft-light"/><path d="m1364 2846.7 9e-4 -334.57 138.78-138.78-2e-4 -134.33-138.78-138.78-138.78 138.78 2e-4 468.91" opacity=".1" style="mix-blend-mode:soft-light"/><path d="m1502.8 2373.4-1e-4 -134.33-138.78-138.78-138.78 138.78 138.78 138.78v134.33" opacity=".1" style="mix-blend-mode:soft-light"/><rect transform="rotate(45)" x="2449.6" y="520.59" width="196.27" height="196.27" opacity=".1" style="mix-blend-mode:soft-light"/></g><g fill="#21a4df" stroke-width="2.1333"><path d="m1364 4106-2e-4 -1259.2-138.78-138.78-138.78 138.78-6e-4 1259.2" opacity=".1" style="mix-blend-mode:hard-light"/><path d="m1364 4106 6e-4 -1259.2-138.78-138.78-138.78 138.78 138.78 138.78v1120.5" opacity=".1" style="mix-blend-mode:hard-light"/><rect transform="rotate(45)" x="2781.2" y="1048.4" width="196.27" height="196.27" opacity=".1" style="mix-blend-mode:hard-light"/></g><g stroke-width="2.1333"><path d="m808.9 2376.8-2.8e-4 -315.8 138.78-138.78 2e-3 -361.28-138.78-138.78-138.78 138.78-2e-3 677.08" opacity=".1" style="mix-blend-mode:soft-light"/><path d="m808.9 2061 138.78-138.78 2e-3 -361.28-138.78-138.78-138.78 138.78 138.78 138.78" opacity=".1" style="mix-blend-mode:soft-light"/><rect transform="rotate(45)" x="1577.6" y="433.67" width="196.27" height="196.27" opacity=".1" style="mix-blend-mode:soft-light"/><path d="m670.12 2238.1-2e-3 -1026.9-138.78-138.78-138.78 138.78-2e-3 398.06 138.78 138.78 4e-3 628.84z" opacity=".1" style="mix-blend-mode:soft-light"/><path d="m670.12 2238.1-1.7e-4 -1026.9-138.78-138.78-138.78 138.78 138.78 138.78 2e-3 1026.9" opacity=".1" style="mix-blend-mode:soft-light"/><rect transform="rotate(45)" x="1134" y="382.57" width="196.27" height="196.27" opacity=".1" style="mix-blend-mode:soft-light"/><path d="m2474.2 2939v-118.46l138.78-138.78v-55.264l-138.78-138.78-138.78 138.78v173.73" opacity=".1" style="mix-blend-mode:soft-light"/><path d="m2613.1 2681.8v-55.264l-138.79-138.78-138.77 138.78 138.77 138.78v55.262" opacity=".1" style="mix-blend-mode:soft-light"/><rect transform="rotate(45)" x="3508.7" y="9.5173" width="196.27" height="196.27" opacity=".1" style="mix-blend-mode:soft-light"/></g><g fill="#21a4df" stroke-width="2.1333"><path d="m2474.2 4106v-1166.9l-138.78-138.78-138.78 138.78v1166.9" opacity=".1" style="mix-blend-mode:hard-light"/><path d="m2474.2 4106v-1166.9l-138.78-138.78-138.78 138.78 138.78 138.78-9e-4 1028.2" opacity=".1" style="mix-blend-mode:hard-light"/><rect transform="rotate(45)" x="3631.6" y="328.62" width="196.27" height="196.27" opacity=".1" style="mix-blend-mode:hard-light"/></g><g stroke-width="2.1333"><path d="m2196.7 2742.3v196.75l138.78-138.78v-380.8l-138.78-138.78-138.78 138.78 1e-4 184.05" opacity=".1" style="mix-blend-mode:soft-light"/><path d="m2335.6 2800.2v-380.8l-138.78-138.78-138.78 138.78 138.78 138.78v380.8" opacity=".1" style="mix-blend-mode:soft-light"/><rect transform="rotate(45)" x="3165.9" y="59.352" width="196.27" height="196.27" opacity=".1" style="mix-blend-mode:soft-light"/><path d="m2196.7 4096v-1353.7l-138.78-138.78-138.78 138.78v1353.7" opacity=".1" style="mix-blend-mode:soft-light"/><path d="m2196.7 4096v-1353.7l-138.79-138.78-138.78 138.78 138.78 138.78-8e-4 1214.9" opacity=".1" style="mix-blend-mode:soft-light"/><rect transform="rotate(45)" x="3296" y="385.77" width="196.27" height="196.27" opacity=".1" style="mix-blend-mode:soft-light"/><path d="m1919.1 2949.1v-206.79l138.78-138.78v-83.356l-138.78-138.78-138.78 138.78v290.15" opacity=".1" style="mix-blend-mode:soft-light"/><path d="m2057.9 2603.5-6e-4 -83.356-138.78-138.78-138.78 138.78 138.78 138.78v83.356" opacity=".1" style="mix-blend-mode:soft-light"/><rect transform="rotate(45)" x="3040.9" y="326.83" width="196.27" height="196.27" opacity=".1" style="mix-blend-mode:soft-light"/><path d="m1919.1 4096v-1146.9l-138.78-138.78-138.78 138.78v1146.9" opacity=".1" style="mix-blend-mode:soft-light"/><path d="m1919.1 4096v-1146.9l-138.78-138.78-138.78 138.78 138.78 138.78v1008.1" opacity=".1" style="mix-blend-mode:soft-light"/><rect transform="rotate(45)" x="3246.1" y="728.26" width="196.27" height="196.27" opacity=".1" style="mix-blend-mode:soft-light"/><path d="m1641.6 3054.9v-105.82l138.78-138.78v-89.967l-138.78-138.78-138.78 138.78v195.79" opacity=".1" style="mix-blend-mode:soft-light"/><path d="m1780.4 2810.3v-89.967l-138.78-138.78-138.78 138.78 138.78 138.78-3e-4 89.967" opacity=".1" style="mix-blend-mode:soft-light"/><rect transform="rotate(45)" x="2986.3" y="664.64" width="196.27" height="196.27" opacity=".1" style="mix-blend-mode:soft-light"/></g><g fill="#73ba25" stroke-width="2.1333"><path d="m1502.8 2916.1v-195.79l138.78-138.78v-69.391l-138.78-138.78-138.78 138.78v542.74" opacity=".1" style="mix-blend-mode:darken"/><path d="m1641.6 2581.5-4e-4 -69.391-138.78-138.78-138.78 138.78 138.78 138.78v69.391" opacity=".1" style="mix-blend-mode:darken"/><rect transform="rotate(45)" x="2740.9" y="615.57" width="196.27" height="196.27" opacity=".1" style="mix-blend-mode:darken"/></g><g stroke-width="2.1333"><path d="m1641.6 4096v-1041.1l-138.78-138.78-138.78 138.78v1041.1" opacity=".1" style="mix-blend-mode:soft-light"/><path d="m1641.6 4096v-1041.1l-138.78-138.78-138.78 138.78 138.78 138.78v902.33" opacity=".1" style="mix-blend-mode:soft-light"/><rect transform="rotate(45)" x="3124.7" y="999.36" width="196.27" height="196.27" opacity=".1" style="mix-blend-mode:soft-light"/><path d="m3029.3 4096v-926.72l138.78-138.78v-144l-138.78-138.78-138.78 138.78v1209.5" opacity=".1" style="mix-blend-mode:soft-light"/><path d="m3168.2 3030.5v-144l-138.78-138.78-138.78 138.78 138.78 138.78v144" opacity=".1" style="mix-blend-mode:soft-light"/><rect transform="rotate(45)" x="4085.1" y="-199.19" width="196.27" height="196.27" opacity=".1" style="mix-blend-mode:soft-light"/><path d="m3306.9 3169.3-0.333-62.189 138.78-138.78 0.3309-299.01-138.78-138.78-138.78 138.78 6e-4 361.19" opacity=".1" style="mix-blend-mode:soft-light"/><path d="m3445.3 2968.3 0.332-299.01-138.78-138.78-138.78 138.78 138.78 138.78-0.3298 299.01" opacity=".1" style="mix-blend-mode:soft-light"/><rect transform="rotate(45)" x="4127.8" y="-549.03" width="196.27" height="196.27" opacity=".1" style="mix-blend-mode:soft-light"/></g><g fill="#fff" stroke-width="2.1333"><path d="m3584.2 3107.1 0.3351 998.87h138.78l-0.3375-1271.8-138.78-138.78-138.78 138.78 2e-4 134.14" opacity=".1" style="mix-blend-mode:hard-light"/><path d="m3723.3 4106-0.3375-1271.8-138.78-138.78-138.78 138.78 138.78 138.78 0.3366 1133" opacity=".1" style="mix-blend-mode:hard-light"/><rect transform="rotate(45)" x="4440.3" y="-628.5" width="196.27" height="196.27" opacity=".1" style="mix-blend-mode:hard-light"/></g><g fill="#73ba25" stroke-width="2.1333"><path d="m4000.6 4106v-1057.3l-138.78-138.78-138.79 138.78v1057.3" opacity=".1" style="mix-blend-mode:darken"/><path d="m4000.6 4106v-1057.3l-138.78-138.78-138.79 138.78 138.79 138.78v918.56" opacity=".1" style="mix-blend-mode:darken"/><rect transform="rotate(45)" x="4788.3" y="-673.11" width="196.27" height="196.27" opacity=".1" style="mix-blend-mode:darken"/></g><g stroke-width="2.1333"><path d="m3584.6 4096-0.3345-988.9-138.78-138.78-138.78 138.78 0.3345 988.9" opacity=".1" style="mix-blend-mode:soft-light"/><path d="m3584.6 4096-0.3345-988.9-138.78-138.78-138.78 138.78 138.78 138.78 0.3337 850.13" opacity=".1" style="mix-blend-mode:soft-light"/><rect transform="rotate(45)" x="4535.3" y="-337.36" width="196.27" height="196.27" opacity=".1" style="mix-blend-mode:soft-light"/></g><g fill="#21a4df" stroke-width="2.1333"><path d="m3306.9 4106v-936.69l-138.78-138.78-138.78 138.78v936.69" opacity=".1" style="mix-blend-mode:hard-light"/><path d="m3306.9 4106v-936.69l-138.78-138.78-138.78 138.78 138.78 916.75 6e-4 19.942" opacity=".1" style="mix-blend-mode:hard-light"/><rect transform="rotate(45)" x="4383.2" y="-97.363" width="196.27" height="196.27" opacity=".1" style="mix-blend-mode:hard-light"/></g><g stroke-width="2.1333"><path d="m2890.7 4096v-1065.5l-138.78-138.78-138.78 138.78v1065.5" opacity=".1" style="mix-blend-mode:soft-light"/><path d="m2890.7 4096v-1065.5l-138.78-138.78-138.78 138.78 138.78 138.78v926.72" opacity=".1" style="mix-blend-mode:soft-light"/><rect transform="rotate(45)" x="3990.6" y="98.904" width="196.27" height="196.27" opacity=".1" style="mix-blend-mode:soft-light"/></g><g fill="#fff" stroke-width="2.1333"><path d="m2613.1 4106-9e-4 -1075.5 138.78-138.78v-71.153l-138.78-138.78-138.78 138.78v1285.4" opacity=".1" style="mix-blend-mode:hard-light"/><path d="m2751.8 2891.7-6e-4 -71.153-138.78-138.78-138.78 138.78 138.78 138.78v71.153" opacity=".1" style="mix-blend-mode:hard-light"/><rect transform="rotate(45)" x="3744" y="48.579" width="196.27" height="196.27" opacity=".1" style="mix-blend-mode:hard-light"/></g><g stroke-width="2.1333"><path d="m2751.8 2820.6v71.153l138.78 138.78-2e-4 -383.27-138.78-138.78-138.78 138.78v34.556" opacity=".1" style="mix-blend-mode:soft-light"/><path d="m2890.7 3030.5-2e-4 -383.27-138.78-138.78-138.78 138.78 138.78 138.78v105.71" opacity=".1" style="mix-blend-mode:soft-light"/><rect transform="rotate(45)" x="3719.5" y="-172.11" width="196.27" height="196.27" opacity=".1" style="mix-blend-mode:soft-light"/><path d="m3029.3 2422.8v-499.97l138.78-138.78v-177.11l-138.78-138.78-138.78 138.78 6e-4 677.08" opacity=".1" style="mix-blend-mode:soft-light"/><path d="m3168.2 1784.1v-177.11l-138.78-138.78-138.78 138.78 138.78 138.78v177.11" opacity=".1" style="mix-blend-mode:soft-light"/><rect transform="rotate(45)" x="3180.2" y="-1104" width="196.27" height="196.27" opacity=".1" style="mix-blend-mode:soft-light"/><path d="m2890.7 1880v-273.09l138.78-138.78v-140.54l-138.78-138.78-138.78 138.78v413.63" opacity=".1" style="mix-blend-mode:soft-light"/><path d="m3029.3 1468.2v-140.54l-138.78-138.78-138.78 138.78 138.78 138.78 9e-4 140.54" opacity=".1" style="mix-blend-mode:soft-light"/><rect transform="rotate(45)" x="2884.7" y="-1203.3" width="196.27" height="196.27" opacity=".1" style="mix-blend-mode:soft-light"/><path d="m2751.8 2192.6v230.25l138.78-138.78v-403.99l-138.79-138.78-138.78 138.78 9e-4 173.73" opacity=".1" style="mix-blend-mode:soft-light"/><path d="m2890.7 2284v-403.99l-138.79-138.78-138.78 138.78 138.78 138.78v403.99" opacity=".1" style="mix-blend-mode:soft-light"/><rect transform="rotate(45)" x="3177.2" y="-714.58" width="196.27" height="196.27" opacity=".1" style="mix-blend-mode:soft-light"/></g><g fill="#73ba25" stroke-width="2.1333"><path d="m808.9 4106-4.3e-4 -1062.7 138.78-138.78-1e-3 -190.85-138.78-138.78-138.78 138.78v1392.3" opacity=".1" style="mix-blend-mode:darken"/><path d="m947.69 2904.5 4.9e-4 -190.85-138.78-138.78-138.78 138.78 138.78 138.78 2e-3 190.85" opacity=".1" style="mix-blend-mode:darken"/><rect transform="rotate(45)" x="2392.7" y="1248.7" width="196.27" height="196.27" opacity=".1" style="mix-blend-mode:darken"/></g><g stroke-width="2.1333"><path d="m1086.5 4096 3e-4 -1052.7-138.78-138.78-138.78 138.78-1e-3 1052.7" opacity=".1" style="mix-blend-mode:soft-light"/><path d="m1086.5 4096v-1052.7l-138.78-138.78-138.78 138.78 138.78 138.78-2e-3 913.95" opacity=".1" style="mix-blend-mode:soft-light"/><rect transform="rotate(45)" x="2723.9" y="1383.7" width="196.27" height="196.27" opacity=".1" style="mix-blend-mode:soft-light"/></g></svg>
