<?xml version="1.0" encoding="UTF-8"?>
<svg id="SVGRoot" width="4096" height="4096" version="1.1" viewBox="0 0 4096 4096" xml:space="preserve" xmlns="http://www.w3.org/2000/svg" xmlns:cc="http://creativecommons.org/ns#" xmlns:dc="http://purl.org/dc/elements/1.1/" xmlns:rdf="http://www.w3.org/1999/02/22-rdf-syntax-ns#"><metadata><rdf:RDF><cc:Work rdf:about=""><dc:format>image/svg+xml</dc:format><dc:type rdf:resource="http://purl.org/dc/dcmitype/StillImage"/></cc:Work></rdf:RDF></metadata><path d="m0 0h4096v4096h-4096z" fill="#2b1d01" stroke-width="2.8444" style="mix-blend-mode:soft-light"/><g fill="none" stroke-linecap="round" stroke-linejoin="round" stroke-width="6.4"><g stroke="#21a4df"><path d="m2335.6 2419.4v207.07l138.78-138.78v-607.68l-138.78-138.78-138.78 138.78v400.62" opacity=".5" style="mix-blend-mode:hard-light"/><path d="m2474.2 2487.7v-607.68l-138.78-138.78-138.78 138.78 138.78 138.78v607.68" opacity=".5" style="mix-blend-mode:hard-light"/><rect transform="rotate(45)" x="2882.6" y="-420.19" width="196.27" height="196.27" opacity=".5" style="mix-blend-mode:hard-light"/></g><g stroke="#73ba25"><path d="m2613.1 2626.6v20.709l138.78-138.78v-315.88l-138.78-138.78-138.78 138.78v295.17" opacity=".5" style="mix-blend-mode:hard-light"/><path d="m2751.8 2508.4-2e-4 -315.88-138.78-138.78-138.79 138.78 138.78 138.78v315.88" opacity=".5" style="mix-blend-mode:hard-light"/><rect transform="rotate(45)" x="3299.9" y="-395.49" width="196.27" height="196.27" opacity=".5" style="mix-blend-mode:hard-light"/></g><path d="m3306.9 2530.6v-607.68l-138.78-138.78-138.78 138.78 138.78 138.78v607.68" opacity=".5" stroke="#21a4df" style="mix-blend-mode:hard-light"/><rect transform="rotate(45)" x="3501.7" y="-978.73" width="196.27" height="196.27" opacity=".5" stroke="#21a4df" style="mix-blend-mode:hard-light"/><rect transform="rotate(45)" x="3986.4" y="-886.68" width="196.27" height="196.27" opacity=".5" stroke="#73ba25" style="mix-blend-mode:hard-light"/><g stroke="#fff"><path d="m1225.3 2481.1v-241.94l138.78-138.78v-504.53l-138.78-138.78-138.78 138.78v746.47" opacity=".5" style="mix-blend-mode:hard-light"/><path d="m1364 2100.3v-504.53l-138.78-138.78-138.78 138.78 138.78 138.78v504.53" opacity=".5" style="mix-blend-mode:hard-light"/><rect transform="rotate(45)" x="1896.6" y="163.83" width="196.27" height="196.27" opacity=".5" style="mix-blend-mode:hard-light"/></g><path d="m1086.5 2342.2v-281.15l-138.78-138.78-138.78 138.78 138.78 138.78 1e-3 281.15" opacity=".5" stroke="#21a4df" style="mix-blend-mode:hard-light"/><path d="m531.35 2656.9v-908.89l-138.78-138.78-138.78 138.78v440.96l138.78 138.78-1e-3 190.35" opacity=".5" stroke="#73ba25" style="mix-blend-mode:hard-light"/><rect transform="rotate(45)" x="1415.5" y="860.3" width="196.27" height="196.27" opacity=".5" stroke="#73ba25" style="mix-blend-mode:hard-light"/><g stroke="#fff"><path d="m115 4096-1e-3 -1768.3 138.78-138.78 8.5e-4 -203.22-138.78-138.78-138.78 138.78v2110.3" opacity=".5" style="mix-blend-mode:hard-light"/><path d="m253.78 2189 2e-3 -203.22-138.78-138.78-138.78 138.78 138.78 138.78v203.22" opacity=".5" style="mix-blend-mode:hard-light"/><rect transform="rotate(45)" x="1387.4" y="1224.7" width="196.27" height="196.27" opacity=".5" style="mix-blend-mode:hard-light"/></g><path d="m531.35 4096 2e-3 -1439.2-138.78-138.78-138.78 138.78 138.78 138.78v1300.4" opacity=".5" stroke="#21a4df" style="mix-blend-mode:hard-light"/><path d="m2474.2 4096v-1157l-138.78-138.78-138.78 138.78 138.78 138.78-9e-4 1018.2" opacity=".5" stroke="#21a4df" style="mix-blend-mode:hard-light"/><path d="m1641.6 2581.5-4e-4 -69.391-138.78-138.78-138.78 138.78 138.78 138.78v69.391" opacity=".5" stroke="#73ba25" style="mix-blend-mode:hard-light"/><rect transform="rotate(45)" x="4440.4" y="-628.49" width="196.27" height="196.27" opacity=".5" stroke="#fff" style="mix-blend-mode:hard-light"/><path d="m3306.9 4096v-926.77l-138.78-138.78-138.78 138.78 138.78 138.78 7e-4 787.99" opacity=".5" stroke="#21a4df" style="mix-blend-mode:hard-light"/><path d="m2751.8 2891.7-6e-4 -71.153-138.78-138.78-138.78 138.78 138.78 138.78v71.153" opacity=".5" stroke="#fff" style="mix-blend-mode:hard-light"/><path d="m947.69 2904.5 4.3e-4 -190.85-138.78-138.78-138.78 138.78 138.78 138.78 2e-3 190.85" opacity=".5" stroke="#73ba25" style="mix-blend-mode:hard-light"/><g stroke="#fbc75d"><path d="m670.12 2238.1v-1026.9l-138.78-138.78-138.78 138.78v398.06l138.78 138.78v628.84z" opacity=".5" style="mix-blend-mode:hard-light"/><path d="m670.12 2238.1v-1026.9l-138.78-138.78-138.78 138.78 138.78 138.78v1026.9" opacity=".5" style="mix-blend-mode:hard-light"/><rect transform="rotate(45)" x="1134" y="382.56" width="196.27" height="196.27" opacity=".5" style="mix-blend-mode:hard-light"/><path d="m2196.7 4096v-1353.8l-138.78-138.78-138.78 138.78v1353.8" opacity=".5" style="mix-blend-mode:hard-light"/><path d="m1502.8 2238.9 1e-3 134.33 138.78 138.78v-677.08l-138.78-138.78-138.78 138.78v265.17" opacity=".5" style="mix-blend-mode:hard-light"/><path d="m1641.6 2512.2v-677.08l-138.78-138.78-138.78 138.78 138.78 138.78-3e-4 399.51" opacity=".5" style="mix-blend-mode:hard-light"/><rect transform="rotate(45)" x="2262.1" y="136.8" width="196.27" height="196.27" opacity=".5" style="mix-blend-mode:hard-light"/><path d="m2057.9 2520.1 2e-4 -100.7 138.78-138.78v-284.84l-138.78-138.78-138.78 138.78v385.54" opacity=".5" style="mix-blend-mode:hard-light"/><path d="m2196.7 2280.7v-284.84l-138.78-138.78-138.78 138.78 138.78 138.78v284.84" opacity=".5" style="mix-blend-mode:hard-light"/><rect transform="rotate(45)" x="2768.3" y="-142.07" width="196.27" height="196.27" opacity=".5" style="mix-blend-mode:hard-light"/><path d="m2890.7 2647.3-5e-4 239.27 138.78-138.78-9e-4 -324.91-138.78-138.78-138.78 138.78v85.63" opacity=".5" style="mix-blend-mode:hard-light"/><rect transform="rotate(45)" x="3659" y="-428.94" width="196.27" height="196.27" opacity=".5" style="mix-blend-mode:hard-light"/><path d="m3722.9 2834.1v214.46l138.79-138.78v-708.31l-137.72-138.78-139.85 138.78v493.85" opacity=".5" style="mix-blend-mode:hard-light"/><path d="m3861.8 2909.9v-708.31l-137.72-138.78-138.78 138.78 137.72 138.78v708.31" opacity=".5" style="mix-blend-mode:hard-light"/></g><path d="m3584.2 2695.5 0.3339-364.8-138.78-138.78-138.78 138.78 138.78 138.78-0.3358 364.8" opacity=".5" stroke="#73ba25" style="mix-blend-mode:hard-light"/><g stroke="#fbc75d"><rect transform="rotate(45)" x="4091.8" y="-1174.7" width="196.27" height="196.27" opacity=".5" style="mix-blend-mode:hard-light"/><path d="m4000.6 3048.5v1047.4m138.78 0v-1655.1l-138.78-138.78-138.78 138.78 4e-4 468.91" opacity=".5" style="mix-blend-mode:hard-light"/><path d="m4139.3 4096v-1655.1l-138.78-138.78-138.78 138.78 138.78 138.78v1516.3" opacity=".5" style="mix-blend-mode:hard-light"/><rect transform="rotate(45)" x="4456.6" y="-1200.9" width="196.27" height="196.27" opacity=".5" style="mix-blend-mode:hard-light"/></g><rect transform="rotate(45)" x="2392.6" y="1248.7" width="196.27" height="196.27" opacity=".5" stroke="#73ba25" style="mix-blend-mode:hard-light"/><g stroke="#fbc75d"><path d="m808.9 2574.9 1e-3 -198.02-138.78-138.78-138.78 138.78 138.78 138.78 2e-3 198.02" opacity=".5" style="mix-blend-mode:hard-light"/><rect transform="rotate(45)" x="2056.4" y="1108.7" width="196.27" height="196.27" opacity=".5" style="mix-blend-mode:hard-light"/><path d="m253.78 4096-4.3e-4 -1439.2 138.78-138.78 8.5e-4 -190.35-138.78-138.78-138.78 138.78v1768.3" opacity=".5" style="mix-blend-mode:hard-light"/><path d="m392.56 2518.2 2e-3 -190.35-138.78-138.78-138.78 138.78 138.78 138.78-8.6e-4 190.35z" opacity=".5" style="mix-blend-mode:hard-light"/><rect transform="rotate(45)" x="1727.2" y="1368.4" width="196.27" height="196.27" opacity=".5" style="mix-blend-mode:hard-light"/><path d="m1225.2 2707.8v-226.97l-138.78-138.78-138.78 138.78 138.78 138.78v226.97" opacity=".5" style="mix-blend-mode:hard-light"/><path d="m1364 2846.7 9e-4 -334.57 138.78-138.78-2e-4 -134.33-138.78-138.78-138.78 138.78 2e-4 468.91" opacity=".5" style="mix-blend-mode:hard-light"/><path d="m1502.8 2373.3-2e-4 -134.33-138.78-138.78-138.78 138.78 138.78 138.78v134.33" opacity=".5" style="mix-blend-mode:hard-light"/><rect transform="rotate(45)" x="2449.6" y="520.59" width="196.27" height="196.27" opacity=".5" style="mix-blend-mode:hard-light"/><path d="m808.9 2376.7-4.3e-4 -315.8 138.78-138.78 2e-3 -361.28-138.78-138.78-138.78 138.78v677.08" opacity=".5" style="mix-blend-mode:hard-light"/></g><path d="m947.69 2713.6v-232.66l138.78-138.78-8e-4 -281.15-138.78-138.78-138.78 138.78-1e-3 513.81" opacity=".5" stroke="#21a4df" style="mix-blend-mode:hard-light"/><path d="m1086.5 3043.2-4e-4 -196.55 138.78-138.78v-226.97l-138.78-138.78-138.78 138.78-1e-3 423.51" opacity=".5" stroke="#fbc75d" style="mix-blend-mode:hard-light"/><path d="m1364 4096-2e-4 -1249.3-138.78-138.78-138.78 138.78-6e-4 1249.3" opacity=".5" stroke="#21a4df" style="mix-blend-mode:hard-light"/><g stroke="#fbc75d"><path d="m808.9 2061 138.78-138.78v-361.28l-138.78-138.78-138.78 138.78 138.78 138.78z" opacity=".5" style="mix-blend-mode:hard-light"/><rect transform="rotate(45)" x="1577.7" y="433.65" width="196.27" height="196.27" opacity=".5" style="mix-blend-mode:hard-light"/><path d="m2474.2 2939.1v-118.46l138.78-138.78v-55.264l-138.78-138.78-138.78 138.78v173.73" opacity=".5" style="mix-blend-mode:hard-light"/><path d="m2613.1 2681.8v-55.264l-138.79-138.78-138.77 138.78 138.77 138.78v55.262" opacity=".5" style="mix-blend-mode:hard-light"/></g><rect transform="rotate(45)" x="3744.1" y="48.588" width="196.27" height="196.27" opacity=".5" stroke="#fff" style="mix-blend-mode:hard-light"/><g stroke="#fbc75d"><rect transform="rotate(45)" x="3508.8" y="9.5054" width="196.27" height="196.27" opacity=".5" style="mix-blend-mode:hard-light"/><path d="m2196.7 2742.2v196.75l138.78-138.78v-380.8l-138.78-138.78-138.78 138.78v184.05" opacity=".5" style="mix-blend-mode:hard-light"/><path d="m2335.6 2800.2v-380.8l-138.78-138.78-138.78 138.78 138.78 138.78v380.8" opacity=".5" style="mix-blend-mode:hard-light"/><rect transform="rotate(45)" x="3165.9" y="59.361" width="196.27" height="196.27" opacity=".5" style="mix-blend-mode:hard-light"/><path d="m2196.7 4096v-1353.8l-138.79-138.78-138.78 138.78 138.78 138.78-9e-4 1215" opacity=".5" style="mix-blend-mode:hard-light"/><rect transform="rotate(45)" x="3296.1" y="385.76" width="196.27" height="196.27" opacity=".5" style="mix-blend-mode:hard-light"/><path d="m1919.1 2949.1v-206.79l138.78-138.78v-83.356l-138.78-138.78-138.78 138.78v290.15" opacity=".5" style="mix-blend-mode:hard-light"/><path d="m2057.9 2603.5-6e-4 -83.356-138.78-138.78-138.78 138.78 138.78 138.78v83.356" opacity=".5" style="mix-blend-mode:hard-light"/><path d="m1919.1 4096v-1147l-138.78-138.78-138.78 138.78v1147" opacity=".5" style="mix-blend-mode:hard-light"/><path d="m1919.1 4096v-1147l-138.78-138.78-138.78 138.78 138.78 138.78v1008.2" opacity=".5" style="mix-blend-mode:hard-light"/><rect transform="rotate(45)" x="3246.2" y="728.27" width="196.27" height="196.27" opacity=".5" style="mix-blend-mode:hard-light"/><path d="m3029.3 4096v-926.77l138.78-138.78v-144l-138.78-138.78-138.78 138.78v1209.5" opacity=".5" style="mix-blend-mode:hard-light"/><path d="m3168.2 3030.4v-144l-138.78-138.78-138.78 138.78 138.78 138.78v144" opacity=".5" style="mix-blend-mode:hard-light"/><path d="m3584.6 4096-0.3345-988.95-138.78-138.78-138.78 138.78 0.3345 988.95" opacity=".5" style="mix-blend-mode:hard-light"/><rect transform="rotate(45)" x="4535.1" y="-337.37" width="196.27" height="196.27" opacity=".5" style="mix-blend-mode:hard-light"/><path d="m2890.7 4096v-1065.6l-138.78-138.78-138.78 138.78 138.78 138.78v926.77" opacity=".5" style="mix-blend-mode:hard-light"/><path d="m2751.8 2820.5v71.153l138.78 138.78-2e-4 -383.27-138.78-138.78-138.78 138.78v34.556" opacity=".5" style="mix-blend-mode:hard-light"/><path d="m2890.7 3030.4-3e-4 -383.27-138.78-138.78-138.78 138.78 138.78 138.78v105.71" opacity=".5" style="mix-blend-mode:hard-light"/></g><path d="m2613.1 4096-9e-4 -1065.6 138.78-138.78v-71.153l-138.78-138.78-138.78 138.78v1275.5" opacity=".5" stroke="#fff" style="mix-blend-mode:hard-light"/><g stroke="#fbc75d"><rect transform="rotate(45)" x="3719.5" y="-172.11" width="196.27" height="196.27" opacity=".5" style="mix-blend-mode:hard-light"/><path d="m3029.3 2422.8v-499.97l138.78-138.78v-177.11l-138.78-138.78-138.78 138.78 6e-4 677.08" opacity=".5" style="mix-blend-mode:hard-light"/><path d="m3168.2 1784.1v-177.11l-138.78-138.78-138.78 138.78 138.78 138.78v177.1" opacity=".5" style="mix-blend-mode:hard-light"/><rect transform="rotate(45)" x="3180.2" y="-1104" width="196.27" height="196.27" opacity=".5" style="mix-blend-mode:hard-light"/><path d="m2890.7 1880.1v-273.09l138.78-138.78v-140.54l-138.78-138.78-138.78 138.78v413.63" opacity=".5" style="mix-blend-mode:hard-light"/><path d="m3029.3 1468.2v-140.54l-138.78-138.78-138.78 138.78 138.78 138.78 9e-4 140.54" opacity=".5" style="mix-blend-mode:hard-light"/><rect transform="rotate(45)" x="2884.6" y="-1203.3" width="196.27" height="196.27" opacity=".5" style="mix-blend-mode:hard-light"/><path d="m2751.8 2192.6v230.25l138.78-138.78v-403.99l-138.79-138.78-138.78 138.78 8e-4 173.73" opacity=".5" style="mix-blend-mode:hard-light"/><path d="m2890.7 2283.9v-403.99l-138.79-138.78-138.78 138.78 138.78 138.78 1e-3 403.99" opacity=".5" style="mix-blend-mode:hard-light"/><rect transform="rotate(45)" x="3177" y="-714.59" width="196.27" height="196.27" opacity=".5" style="mix-blend-mode:hard-light"/><path d="m1086.5 4096v-1052.8l-138.78-138.78-138.78 138.78 138.78 138.78v913.99" opacity=".5" style="mix-blend-mode:hard-light"/></g><path d="m3168.2 2886.4v-217.19l138.78-138.78 9e-4 -607.68-138.78-138.78-138.78 138.78-2e-4 824.87" opacity=".5" stroke="#21a4df" style="mix-blend-mode:hard-light"/><path d="m3306.9 3169.3-0.333-62.189 138.78-138.78 0.3309-299.01-138.78-138.78-138.78 138.78 6e-4 361.19" opacity=".5" stroke="#fbc75d" style="mix-blend-mode:hard-light"/><path d="m3445.8 2669.2-0.3311 164.86 138.78-138.78 0.3369-364.8-138.78-138.78-138.78 138.78v199.94" opacity=".5" stroke="#73ba25" style="mix-blend-mode:hard-light"/><path d="m3445.3 2968.3 0.332-299.01-138.78-138.78-138.78 138.78 138.78 138.78-0.3298 299.01" opacity=".5" stroke="#fbc75d" style="mix-blend-mode:hard-light"/><path d="m3584.2 3107 0.3352 988.95m138.78 0-0.3375-1261.9-138.78-138.78-138.78 138.78 2e-4 134.14" opacity=".5" stroke="#fff" style="mix-blend-mode:hard-light"/><path d="m3029.3 2747.7 2e-4 -324.91-138.79-138.78-138.78 138.78 138.78 138.78 7e-4 324.91" opacity=".5" stroke="#fbc75d" style="mix-blend-mode:hard-light"/><rect transform="rotate(45)" x="4127.7" y="-549.02" width="196.27" height="196.27" opacity=".5" stroke="#fbc75d" style="mix-blend-mode:hard-light"/><rect transform="rotate(45)" x="4383.2" y="-97.375" width="196.27" height="196.27" opacity=".5" stroke="#21a4df" style="mix-blend-mode:hard-light"/><rect transform="rotate(45)" x="4085" y="-199.2" width="196.27" height="196.27" opacity=".5" stroke="#fbc75d" style="mix-blend-mode:hard-light"/><rect transform="rotate(45)" x="4788.3" y="-673.12" width="196.27" height="196.27" opacity=".5" stroke="#73ba25" style="mix-blend-mode:hard-light"/><path d="m3723.3 4096-0.3375-1261.9-138.78-138.78-138.78 138.78 138.78 138.78 0.3367 1123.1" opacity=".5" stroke="#fff" style="mix-blend-mode:hard-light"/><path d="m3584.6 4096-0.3345-988.95-138.78-138.78-138.78 138.78 138.78 138.78 0.3337 850.17" opacity=".5" stroke="#fbc75d" style="mix-blend-mode:hard-light"/><rect transform="rotate(45)" x="2740.8" y="615.56" width="196.27" height="196.27" opacity=".5" stroke="#73ba25" style="mix-blend-mode:hard-light"/><path d="m1780.4 2810.2v-89.967l-138.78-138.78-138.78 138.78 138.78 138.78-4e-4 89.967" opacity=".5" stroke="#fbc75d" style="mix-blend-mode:hard-light"/><path d="m531.35 2656.9v-908.89l-138.78-138.78-138.78 138.78 138.78 138.78v631.32" opacity=".5" stroke="#73ba25" style="mix-blend-mode:hard-light"/><path d="m670.12 4096-1e-3 -1382.4 138.78-138.78-4.2e-4 -198.02-138.78-138.78-138.78 138.78v1719.2" opacity=".5" stroke="#fbc75d" style="mix-blend-mode:hard-light"/><path d="m808.9 4096-4.3e-4 -1052.8 138.78-138.78-1e-3 -190.85-138.78-138.78-138.78 138.78v1382.4" opacity=".5" stroke="#73ba25" style="mix-blend-mode:hard-light"/><rect transform="rotate(45)" x="2424.4" y="887.93" width="196.27" height="196.27" opacity=".5" stroke="#fbc75d" style="mix-blend-mode:hard-light"/><g stroke="#21a4df"><rect transform="rotate(45)" x="3631.4" y="328.61" width="196.27" height="196.27" opacity=".5" style="mix-blend-mode:hard-light"/><path d="m1919.1 2381.4-8e-4 -109.36-138.78-138.78-138.78 138.78 138.78 138.78 8e-4 109.36" opacity=".5" style="mix-blend-mode:hard-light"/><rect transform="rotate(45)" x="2767.2" y="249.48" width="196.27" height="196.27" opacity=".5" style="mix-blend-mode:hard-light"/><path d="m1780.4 2720.2 1e-3 -200.18 138.78-138.78v-109.36l-138.78-138.78-138.78 138.78v309.55" opacity=".5" style="mix-blend-mode:hard-light"/></g><path d="m1502.8 2916.1v-195.79l138.78-138.78v-69.391l-138.78-138.78-138.78 138.78v542.74" opacity=".5" stroke="#73ba25" style="mix-blend-mode:hard-light"/><path d="m1364 4096 7e-4 -1249.3-138.78-138.78-138.78 138.78 138.78 138.78v1110.6" opacity=".5" stroke="#21a4df" style="mix-blend-mode:hard-light"/><g stroke="#fbc75d"><path d="m1641.6 3054.9v-105.82l138.78-138.78v-89.967l-138.78-138.78-138.78 138.78v195.79" opacity=".5" style="mix-blend-mode:hard-light"/><rect transform="rotate(45)" x="3040.9" y="326.82" width="196.27" height="196.27" opacity=".5" style="mix-blend-mode:hard-light"/><rect transform="rotate(45)" x="2986.1" y="664.63" width="196.27" height="196.27" opacity=".5" style="mix-blend-mode:hard-light"/><path d="m1641.6 4096v-1041.2l-138.78-138.78-138.78 138.78 138.78 138.78v902.37" opacity=".5" style="mix-blend-mode:hard-light"/><rect transform="rotate(45)" x="3124.6" y="999.35" width="196.27" height="196.27" opacity=".5" style="mix-blend-mode:hard-light"/><path d="m1641.6 4096v-1041.2l-138.78-138.78-138.78 138.78v1041.2" opacity=".5" style="mix-blend-mode:hard-light"/><path d="m2890.7 4096v-1065.6l-138.78-138.78-138.78 138.78v1065.6" opacity=".5" style="mix-blend-mode:hard-light"/><rect transform="rotate(45)" x="3990.7" y="98.892" width="196.27" height="196.27" opacity=".5" style="mix-blend-mode:hard-light"/></g><path d="m3306.9 4096v-926.77l-138.78-138.78-138.78 138.78v926.77" opacity=".5" stroke="#21a4df" style="mix-blend-mode:hard-light"/><path d="m4000.6 4096v-1047.4l-138.78-138.78-138.79 138.78 138.79 138.78v908.63" opacity=".5" stroke="#73ba25" style="mix-blend-mode:hard-light"/><path d="m4000.6 4096v-1047.4l-138.78-138.78-138.79 138.78v1047.4" opacity=".5" stroke="#73ba25" style="mix-blend-mode:hard-light"/><path d="m531.35 4096-1e-3 -1439.2-138.78-138.78-138.78 138.78 4.2e-4 1439.2" opacity=".5" stroke="#21a4df" style="mix-blend-mode:hard-light"/><rect transform="rotate(45)" x="2058.1" y="1503" width="196.27" height="196.27" opacity=".5" stroke="#21a4df" style="mix-blend-mode:hard-light"/><path d="m1086.5 4096 2e-4 -1052.8-138.78-138.78-138.78 138.78-1e-3 1052.8" opacity=".5" stroke="#fbc75d" style="mix-blend-mode:hard-light"/><rect transform="rotate(45)" x="2781.1" y="1048.4" width="196.27" height="196.27" opacity=".5" stroke="#21a4df" style="mix-blend-mode:hard-light"/><rect transform="rotate(45)" x="2723.9" y="1383.8" width="196.27" height="196.27" opacity=".5" stroke="#fbc75d" style="mix-blend-mode:hard-light"/><rect transform="rotate(45)" x="2029.3" y="689.12" width="196.27" height="196.27" opacity=".5" stroke="#21a4df" style="mix-blend-mode:hard-light"/><path d="m2474.2 4096v-1157l-138.78-138.78-138.78 138.78v1157" opacity=".5" stroke="#21a4df" style="mix-blend-mode:hard-light"/></g></svg>
